<?xml version="1.0" encoding="UTF-8"?>
<svg version="1.1" xmlns="http://www.w3.org/2000/svg" width="1024" height="1024">
<path d="M0 0 C337.92 0 675.84 0 1024 0 C1024 337.92 1024 675.84 1024 1024 C686.08 1024 348.16 1024 0 1024 C0 686.08 0 348.16 0 0 Z " fill="#FEF5DF" transform="translate(0,0)"/>
<path d="M0 0 C2.30445467 0.98042994 4.42725795 2.00751773 6.625 3.1875 C8.058727 3.92934665 9.4937209 4.6687478 10.9296875 5.40625 C11.72987305 5.81875 12.53005859 6.23125 13.35449219 6.65625 C18.44864675 9.24375708 23.6010637 11.71131091 28.75 14.1875 C29.90628906 14.74421387 31.06257812 15.30092773 32.25390625 15.87451172 C41.49412672 20.30865366 50.78809229 24.62034337 60.09472656 28.9128418 C69.99403627 33.49567845 79.80540552 38.24796154 89.61010742 43.02893066 C99.07117581 47.63995432 108.56533874 52.15848082 118.125 56.5625 C128.30116473 61.25179069 138.41669832 66.05229694 148.5 70.9375 C149.14358459 71.24906036 149.78716919 71.56062073 150.45025635 71.88162231 C153.49097254 73.35465105 156.52769147 74.83442226 159.55859375 76.32763672 C161.86864489 77.45021407 164.19482386 78.5401462 166.53515625 79.59814453 C167.62699219 80.1032959 168.71882813 80.60844727 169.84375 81.12890625 C170.81505859 81.56404541 171.78636719 81.99918457 172.78710938 82.44750977 C175 84 175 84 175.82226562 86.67944336 C175.88091797 87.44522705 175.93957031 88.21101074 176 89 C164.28125 94.859375 164.28125 94.859375 162.15234375 95.91992188 C160.68202164 96.65775139 159.21602922 97.40425624 157.75390625 98.15820312 C152.21064815 101 152.21064815 101 150 101 C150.04165472 107.88724005 150.11396687 114.77367107 150.20751953 121.66040039 C150.23573113 124.00277398 150.25694468 126.34524281 150.27099609 128.68774414 C150.29242224 132.05664839 150.33907316 135.42440737 150.390625 138.79296875 C150.39246796 140.36198189 150.39246796 140.36198189 150.39434814 141.96269226 C150.48442996 147.84651759 150.48442996 147.84651759 152.97558594 153.07543945 C153.64364258 153.71054443 154.31169922 154.34564941 155 155 C156.53995173 158.07990345 156.22377524 160.58742761 156 164 C154.82824302 167.14243916 153.67152961 170.00465838 151.79296875 172.7890625 C150.59387719 176.13234242 151.65375884 178.33237518 152.6875 181.6875 C155.12044667 190.03702482 156.75459276 198.39616551 158 207 C158.14179687 207.94488281 158.28359375 208.88976562 158.4296875 209.86328125 C158.69674185 213.04122804 158.56310878 215.29573862 156.53515625 217.83203125 C151.25554606 222.59819097 146.72078352 223.34979588 139.73046875 223.28515625 C135.0640204 222.79781615 132.40242086 220.57730308 129.37109375 217.16796875 C123.78301904 208.33212413 129.91005959 191.57159152 132 182 C132.21285645 181.15985352 132.42571289 180.31970703 132.64501953 179.45410156 C132.84466309 178.65584961 133.04430664 177.85759766 133.25 177.03515625 C133.43820312 176.32625244 133.62640625 175.61734863 133.8203125 174.88696289 C134.1244573 171.69302929 131.74733286 169.56960715 130 167 C129.18278827 161.8654433 129.02686173 156.82026772 131.875 152.3125 C132.57625 151.549375 133.2775 150.78625 134 150 C134.66 150 135.32 150 136 150 C136 136.14 136 122.28 136 108 C126.01994855 112.88511823 126.01994855 112.88511823 116.04614258 117.78295898 C114.78749571 118.39612972 113.52863906 119.0088701 112.26953125 119.62109375 C111.62576538 119.93985474 110.98199951 120.25861572 110.31872559 120.58703613 C106.89983095 122.24227265 103.77041844 123.46766857 100 124 C100.24012817 125.52355103 100.24012817 125.52355103 100.48510742 127.07788086 C101.29334304 133.23449787 101.2666934 139.36028667 101.3125 145.5625 C101.34150391 146.84447266 101.37050781 148.12644531 101.40039062 149.44726562 C101.47664754 161.06764564 100.08445732 172.53749909 92.171875 181.546875 C90.79074918 182.9483412 90.79074918 182.9483412 91 185 C91.9075 185.5775 92.815 186.155 93.75 186.75 C97.54733014 189.37892087 99.10133381 190.76451388 101 195 C102.79316498 207.45160356 99.52556966 221.21058989 92.6875 231.75 C88.51079315 237.06827966 83.78663308 240.77261267 77 241.8125 C76.01 241.874375 75.02 241.93625 74 242 C73.87044922 242.85658203 73.87044922 242.85658203 73.73828125 243.73046875 C71.67047135 255.66305985 67.09283502 269.97780655 58.3046875 278.6640625 C55.32665519 282.14493011 55.66763093 285.23842393 55.90234375 289.65039062 C56.05052211 291.5052198 56.20674696 293.35942408 56.37109375 295.21289062 C56.70928111 301.94281912 56.70928111 301.94281912 54.61279297 305.06762695 C52.83202968 306.87084902 50.99954939 308.44517168 49 310 C48.13117188 310.75925781 47.26234375 311.51851563 46.3671875 312.30078125 C43.58685345 314.54509479 40.79868166 316.7785921 38 319 C36.54980469 320.175625 36.54980469 320.175625 35.0703125 321.375 C25.43691853 329.02288529 15.02288714 336.48855643 4 342 C5.37297814 345.07693831 6.94214627 347.19457024 9.31640625 349.57519531 C9.99050537 350.25559875 10.66460449 350.9360022 11.35913086 351.63702393 C12.08624268 352.36008728 12.81335449 353.08315063 13.5625 353.828125 C14.30959229 354.57713074 15.05668457 355.32613647 15.82641602 356.09783936 C17.40427919 357.67706204 18.98466499 359.25376774 20.56738281 360.828125 C22.99777965 363.24778946 25.41730061 365.67796189 27.8359375 368.109375 C29.36915052 369.64126697 30.90298352 371.17253872 32.4375 372.703125 C33.52816772 373.79986542 33.52816772 373.79986542 34.64086914 374.91876221 C35.31496826 375.58655701 35.98906738 376.25435181 36.68359375 376.94238281 C37.57389282 377.8302951 37.57389282 377.8302951 38.48217773 378.73614502 C39.92696919 380.21329549 39.92696919 380.21329549 42 380 C53.67430961 359.7155705 63.42634096 338.76983413 72 317 C79.77424008 319.47438179 87.31253752 322.44689622 94.875 325.5 C96.19869757 326.03295931 97.52242861 326.56583553 98.84619141 327.09863281 C101.56217536 328.19240177 104.27735516 329.28814184 106.9921875 330.38476562 C110.79252865 331.91856644 114.59906564 333.43639187 118.40625 334.953125 C147.0508392 346.41294095 177.18851543 359.45195127 190.69726562 389.26513672 C193.30669574 395.36551988 194.92089115 401.4493533 196 408 C196.20367188 409.13179687 196.40734375 410.26359375 196.6171875 411.4296875 C198.15464353 421.72853678 198.21179118 432.04525676 198.25 442.4375 C198.25790054 443.56520813 198.25790054 443.56520813 198.26596069 444.71569824 C198.27764122 446.8718596 198.27437022 449.02742863 198.265625 451.18359375 C198.26336914 452.44743896 198.26111328 453.71128418 198.25878906 455.01342773 C198 458 198 458 196 460 C193.18909264 460.25069833 193.18909264 460.25069833 189.51254272 460.25168228 C188.83548476 460.25458916 188.15842679 460.25749604 187.46085191 460.26049101 C185.16961385 460.26784737 182.87863889 460.26082171 180.58740234 460.25396729 C178.93718007 460.2562695 177.28695882 460.2594444 175.63673973 460.26342177 C171.08446251 460.27181137 166.53226858 460.26762572 161.97999096 460.26144934 C157.07741402 460.25694279 152.17485187 460.26389964 147.27227783 460.26940918 C137.66118912 460.27832412 128.05013157 460.27637185 118.43904161 460.2705839 C110.63113174 460.26607565 102.82323063 460.26545087 95.01531982 460.26763153 C93.90602375 460.267938 92.79672768 460.26824446 91.65381658 460.26856022 C89.40063111 460.26919964 87.14744564 460.26984806 84.89426017 460.2705054 C63.7430255 460.27621485 42.59180814 460.26964118 21.44057631 460.25890467 C3.27352658 460.2499686 -14.8934976 460.25152047 -33.06054688 460.26074219 C-54.13369607 460.27143398 -75.20683008 460.27566547 -96.27998161 460.26951766 C-98.52509435 460.26888053 -100.77020708 460.26825179 -103.01531982 460.26763153 C-104.12009253 460.26732298 -105.22486524 460.26701443 -106.36311591 460.26669653 C-114.16584805 460.26496631 -121.96857061 460.26789171 -129.77130127 460.27259064 C-139.27419318 460.27818738 -148.77705203 460.27670856 -158.27994013 460.26602915 C-163.13275886 460.26075611 -167.98552238 460.25874331 -172.83834076 460.26532745 C-177.27448494 460.27125545 -181.71052236 460.26806436 -186.14665675 460.25737235 C-187.75765716 460.25512486 -189.36866646 460.2563045 -190.97966123 460.26112393 C-193.15741946 460.26714273 -195.33480451 460.26103219 -197.51254272 460.25168228 C-198.7258042 460.25135758 -199.93906567 460.25103287 -201.18909264 460.25069833 C-204 460 -204 460 -206 458 C-206.20061788 455.48357047 -206.27940872 453.0797803 -206.265625 450.5625 C-206.26849014 449.81453659 -206.27135529 449.06657318 -206.27430725 448.29594421 C-206.27869528 445.86376524 -206.26612099 443.43212474 -206.25 441 C-206.24656586 440.17666168 -206.24313171 439.35332336 -206.23959351 438.5050354 C-206.10632088 411.47847225 -203.45111428 387.68025262 -184 367 C-166.61642161 350.67478255 -143.91199487 341.70466775 -121.984375 333.27319336 C-115.570764 330.8063188 -109.20062673 328.27578854 -102.87109375 325.6015625 C-101.87059494 325.18017502 -101.87059494 325.18017502 -100.84988403 324.75027466 C-98.23654379 323.6484022 -95.62382481 322.54562712 -93.01904297 321.42364502 C-91.23357674 320.65461721 -89.44306532 319.89733477 -87.65234375 319.140625 C-86.63132568 318.70266602 -85.61030762 318.26470703 -84.55834961 317.81347656 C-82 317 -82 317 -79 318 C-77.91601563 319.95166016 -77.91601563 319.95166016 -76.90625 322.5390625 C-76.52138428 323.50078369 -76.13651855 324.46250488 -75.73999023 325.45336914 C-75.33079346 326.50000732 -74.92159668 327.54664551 -74.5 328.625 C-67.29166808 346.45529237 -59.37974884 363.77683699 -49 380 C-42.46670419 375.53509291 -36.9232567 370.20157501 -31.3815918 364.58740234 C-29.94174119 363.12929497 -28.49404926 361.67935098 -27.04492188 360.23046875 C-17.40885917 352.14035789 -17.40885917 352.14035789 -12 342 C-14.24311936 340.50252445 -16.49139352 339.11765442 -18.8125 337.75 C-33.74862009 328.66021231 -47.53067615 318.26055282 -60 306 C-60.77988281 305.43667969 -61.55976563 304.87335938 -62.36328125 304.29296875 C-65.0723456 300.49769244 -64.06072936 296.43661029 -63.75 291.9375 C-63.45671341 283.63685644 -64.07183415 279.03652627 -69.765625 272.65625 C-76.91642193 264.1553026 -80.09949912 252.73330497 -82 242 C-82.969375 241.95875 -83.93875 241.9175 -84.9375 241.875 C-90.96018952 240.97281574 -95.8022948 237.50402252 -99.765625 232.98828125 C-106.22012074 223.90960922 -109.10142296 213.5940527 -109.3125 202.5625 C-109.36857422 200.64630859 -109.36857422 200.64630859 -109.42578125 198.69140625 C-108.84322414 193.6407964 -106.88123607 190.64416974 -103.078125 187.3203125 C-101.38541667 186.21354167 -99.69270833 185.10677083 -98 184 C-98.39832031 183.50371094 -98.79664063 183.00742187 -99.20703125 182.49609375 C-108.22103678 170.93798934 -109.34491332 159.10397292 -109.1875 144.8125 C-109.1865332 143.12737305 -109.1865332 143.12737305 -109.18554688 141.40820312 C-109.15441013 135.51643835 -108.88910561 129.82541994 -108 124 C-108.97779419 123.87214111 -108.97779419 123.87214111 -109.9753418 123.74169922 C-114.06622681 122.73854249 -117.61629192 120.96834404 -121.39453125 119.1328125 C-122.2112178 118.74189926 -123.02790436 118.35098602 -123.86933899 117.94822693 C-126.51947273 116.67878057 -129.16595586 115.40191056 -131.8125 114.125 C-135.44005375 112.38388975 -139.0694735 110.64669243 -142.69921875 108.91015625 C-143.59108887 108.4829277 -144.48295898 108.05569916 -145.40185547 107.61552429 C-153.53772782 103.72558851 -161.72662456 99.96105685 -169.96801758 96.29931641 C-174.61170606 94.21076752 -179.01612601 92.20110003 -183 89 C-183.65283203 86.87719727 -183.65283203 86.87719727 -184 85 C-177.52287084 80.71320437 -170.81539264 77.45604289 -163.75 74.25 C-161.24350422 73.1017558 -158.73898083 71.94923473 -156.234375 70.796875 C-155.24673157 70.34332642 -155.24673157 70.34332642 -154.23913574 69.88061523 C-146.90153219 66.50606476 -139.60303415 63.04948854 -132.30438232 59.59170532 C-120.93164219 54.20384897 -109.54760764 48.84396587 -98.125 43.5625 C-87.17884662 38.4989243 -76.27157794 33.35669246 -65.375 28.1875 C-64.57756378 27.80924072 -63.78012756 27.43098145 -62.95852661 27.04125977 C-61.34811897 26.27736437 -59.73771146 25.5134687 -58.12730408 24.74957275 C-57.32861404 24.37072937 -56.52992401 23.99188599 -55.70703125 23.6015625 C-54.90733414 23.22223572 -54.10763702 22.84290894 -53.28370667 22.4520874 C-45.29121934 18.66199428 -37.29355122 14.88294115 -29.29156494 11.11294556 C-27.8225575 10.42067665 -26.35376157 9.72795869 -24.88519287 9.03475952 C-22.8524154 8.07534753 -20.81889255 7.11753372 -18.78515625 6.16015625 C-17.63926025 5.62011963 -16.49336426 5.08008301 -15.31274414 4.52368164 C-4.08920356 -0.63853494 -4.08920356 -0.63853494 0 0 Z " fill="#EF640A" transform="translate(516,175)"/>
<path d="M0 0 C9.57 0 19.14 0 29 0 C31.51615469 6.75021786 34.03218319 13.50048235 36.54776001 20.25091553 C37.43295583 22.6262958 38.31818942 25.001662 39.20346069 27.37701416 C44.28787327 41.02024046 49.36255983 54.66676535 54.40136719 68.3269043 C56.80667866 74.82833215 59.24970524 81.31497398 61.70703125 87.796875 C62.03042984 88.65008331 62.35382843 89.50329163 62.68702698 90.38235474 C64.29927034 94.63410624 65.9141045 98.88485267 67.5324707 103.13427734 C68.11802202 104.67544786 68.70355359 106.21662587 69.2890625 107.7578125 C69.56349686 108.47612244 69.83793121 109.19443237 70.12068176 109.93450928 C72 114.88695982 72 114.88695982 72 116 C63.42 116 54.84 116 46 116 C41.545 103.625 41.545 103.625 37 91 C22.15 91 7.3 91 -8 91 C-10.59104964 98.85231359 -10.59104964 98.85231359 -13.17553711 106.70678711 C-13.4978833 107.6788208 -13.82022949 108.65085449 -14.15234375 109.65234375 C-14.48226318 110.65257568 -14.81218262 111.65280762 -15.15209961 112.68334961 C-16 115 -16 115 -17 116 C-18.85369611 116.08737645 -20.71067541 116.10698153 -22.56640625 116.09765625 C-23.69111328 116.09443359 -24.81582031 116.09121094 -25.97460938 116.08789062 C-27.15861328 116.07951172 -28.34261719 116.07113281 -29.5625 116.0625 C-30.75037109 116.05798828 -31.93824219 116.05347656 -33.16210938 116.04882812 C-36.10812226 116.03699675 -39.05403681 116.02051287 -42 116 C-36.87727927 100.1961943 -31.35581098 84.5650563 -25.58372498 68.98799133 C-23.19804789 62.54660423 -20.83249571 56.09790026 -18.46875 49.6484375 C-17.66261541 47.4497819 -16.85646294 45.25113286 -16.05029297 43.05249023 C-14.84723256 39.77135333 -13.64429907 36.49017043 -12.44195557 33.20877075 C-11.30866317 30.11667525 -10.17400819 27.02508274 -9.0390625 23.93359375 C-8.70604126 23.02406952 -8.37302002 22.11454529 -8.02990723 21.17745972 C-5.42516113 14.08772196 -2.71237974 7.05218733 0 0 Z " fill="#152731" transform="translate(152,675)"/>
<path d="M0 0 C10.8171717 7.90485624 18.04990336 18.17918567 20.5234375 31.45703125 C21.99119084 45.01550407 19.87023132 57.08231716 11.4921875 68.140625 C4.13471582 76.79733275 -4.2947372 82.02245774 -15.4765625 84.45703125 C-31.06249129 85.68838306 -43.98150194 83.93620889 -56.44921875 73.86328125 C-64.68496702 66.1886499 -69.96451504 56.04833802 -70.72265625 44.80859375 C-70.96079876 30.77219394 -68.1966724 17.64128011 -58.21875 7.04296875 C-42.8310067 -6.96470788 -18.32082343 -11.41439314 0 0 Z " fill="#142630" transform="translate(448.4765625,708.54296875)"/>
<path d="M0 0 C9.95232591 8.33507295 14.90932974 22.24465968 16.1875 34.875 C16.1875 37.845 16.1875 40.815 16.1875 43.875 C-3.9425 44.205 -24.0725 44.535 -44.8125 44.875 C-42.09867983 55.31334652 -42.09867983 55.31334652 -34.83984375 62.125 C-28.30741087 65.44306115 -22.16999586 66.04744853 -15.09765625 64.14453125 C-10.04903837 62.32821498 -6.70341967 60.60559583 -3.8125 55.875 C2.35106805 57.5408292 7.67009656 60.75305286 13.1875 63.875 C8.70426068 73.20173895 1.28179043 78.2204942 -8.3125 81.75 C-21.40775622 85.22551824 -36.30091352 83.71007985 -48.0625 77.125 C-58.4892525 70.37730732 -65.03566654 61.08545946 -67.8125 48.875 C-69.43951753 32.24931143 -66.79855262 18.81541832 -56.0703125 5.75390625 C-41.82291058 -9.88276515 -17.10739516 -12.02064477 0 0 Z " fill="#162932" transform="translate(739.8125,710.125)"/>
<path d="M0 0 C7.98396568 5.48463729 11.61389831 11.94802581 13.59857178 21.27584839 C14.41593136 26.82257205 14.2409266 32.40972601 14.1953125 38.00390625 C14.1924826 39.32293442 14.18965271 40.64196259 14.18673706 42.0009613 C14.17916474 45.47795436 14.15957277 48.95477565 14.1373291 52.43170166 C14.11673129 55.99155353 14.10770579 59.55143362 14.09765625 63.11132812 C14.07631958 70.07429567 14.04119109 77.03712186 14 84 C6.74 84 -0.52 84 -8 84 C-8.01458252 82.37578125 -8.02916504 80.7515625 -8.04418945 79.078125 C-8.10231275 73.03216927 -8.17954572 66.98658048 -8.26245117 60.94091797 C-8.29563439 58.32802298 -8.32368671 55.71505745 -8.34643555 53.10205078 C-8.38010208 49.33856239 -8.43242649 45.57571661 -8.48828125 41.8125 C-8.49467117 40.65073242 -8.5010611 39.48896484 -8.50764465 38.29199219 C-8.62359776 31.84510592 -9.16732356 26.83100647 -12 21 C-17.45216851 15.81379093 -21.45193014 15.6372499 -28.79296875 15.734375 C-33.05481451 16.08736588 -35.03899205 16.88714548 -38 20 C-42.3424989 27.02174909 -42.60079828 33.83626172 -42.609375 41.91015625 C-42.62591125 43.11820419 -42.64244751 44.32625214 -42.65948486 45.57090759 C-42.70778392 49.40149106 -42.72929676 53.231678 -42.75 57.0625 C-42.77817463 59.67124371 -42.80810412 62.2799691 -42.83984375 64.88867188 C-42.9135388 71.25908193 -42.96322447 77.62927417 -43 84 C-50.26 84 -57.52 84 -65 84 C-65 55.62 -65 27.24 -65 -2 C-57.74 -2 -50.48 -2 -43 -2 C-42.67 1.3 -42.34 4.6 -42 8 C-41.278125 7.2575 -40.55625 6.515 -39.8125 5.75 C-28.7554667 -5.06132145 -13.97328431 -8.3543975 0 0 Z " fill="#13252F" transform="translate(892,707)"/>
<path d="M0 0 C7.10407138 3.80455008 11.73357168 8.76074675 14.47265625 16.32421875 C16.68592764 24.24241463 16.73603707 32.03730574 16.66796875 40.20703125 C16.66513885 41.50244843 16.66230896 42.7978656 16.65939331 44.13253784 C16.65183233 47.5421144 16.63225071 50.95151495 16.60998535 54.36102295 C16.58936252 57.85393901 16.5803568 61.34688409 16.5703125 64.83984375 C16.54899595 71.66804744 16.51387732 78.49610647 16.47265625 85.32421875 C9.21265625 85.32421875 1.95265625 85.32421875 -5.52734375 85.32421875 C-5.53668945 83.66970703 -5.54603516 82.01519531 -5.55566406 80.31054688 C-5.59563522 74.15272425 -5.6614154 67.99539745 -5.73486328 61.83789062 C-5.76521898 59.17630264 -5.78426489 56.51531855 -5.79833984 53.85351562 C-5.8198259 50.02040232 -5.86650938 46.18828273 -5.91796875 42.35546875 C-5.91919739 41.17182739 -5.92042603 39.98818604 -5.92169189 38.76867676 C-6.05463933 31.21362273 -6.81473083 25.55382535 -11.97418213 19.67590332 C-15.20967963 16.86011649 -18.81447608 17.13034508 -22.90234375 17.07421875 C-24.02382813 17.0484375 -25.1453125 17.02265625 -26.30078125 16.99609375 C-29.884163 17.36050545 -31.66759072 18.17689542 -34.52734375 20.32421875 C-38.20750761 25.23110389 -39.63708919 28.72946429 -39.73266602 34.80541992 C-39.75261124 35.92635544 -39.77255646 37.04729095 -39.79310608 38.20219421 C-39.80981857 39.411642 -39.82653107 40.62108978 -39.84375 41.8671875 C-39.8645311 43.10592117 -39.88531219 44.34465485 -39.90672302 45.6209259 C-39.96106172 48.91047131 -40.01130326 52.20004601 -40.05957031 55.48968506 C-40.10985021 58.84799689 -40.16550236 62.20621921 -40.22070312 65.56445312 C-40.32787426 72.15097255 -40.42914851 78.73755964 -40.52734375 85.32421875 C-47.78734375 85.32421875 -55.04734375 85.32421875 -62.52734375 85.32421875 C-62.52734375 56.94421875 -62.52734375 28.56421875 -62.52734375 -0.67578125 C-55.59734375 -0.67578125 -48.66734375 -0.67578125 -41.52734375 -0.67578125 C-41.19734375 2.62421875 -40.86734375 5.92421875 -40.52734375 9.32421875 C-39.53734375 8.25171875 -38.54734375 7.17921875 -37.52734375 6.07421875 C-27.48571215 -4.00823249 -12.93147703 -5.42779227 0 0 Z " fill="#152731" transform="translate(587.52734375,705.67578125)"/>
<path d="M0 0 C7.26 0 14.52 0 22 0 C22.01401855 2.48176758 22.01401855 2.48176758 22.02832031 5.01367188 C22.06829147 11.1714945 22.13407165 17.3288213 22.20751953 23.48632812 C22.23787523 26.14791611 22.25692114 28.8089002 22.27099609 31.47070312 C22.29248215 35.30381643 22.33916563 39.13593602 22.390625 42.96875 C22.39185364 44.15239136 22.39308228 45.33603271 22.39434814 46.55554199 C22.51612919 53.476039 23.22689768 58.13534303 27 64 C31.65679097 67.46551886 36.39813751 67.71243199 42 67 C47.20498964 65.37877372 50.15355982 63.67629459 53 59 C56.0357387 52.1189961 56.46630687 45.62609666 56.51171875 38.18359375 C56.52966995 37.08652603 56.54762115 35.98945831 56.56611633 34.85914612 C56.61991881 31.38530215 56.65401883 27.91159322 56.6875 24.4375 C56.72069956 22.06964279 56.75519163 19.70180333 56.79101562 17.33398438 C56.87562815 11.55608748 56.94258252 5.77822854 57 0 C63.93 0 70.86 0 78 0 C78 28.05 78 56.1 78 85 C71.4 85 64.8 85 58 85 C58 81.04 58 77.08 58 73 C57.34 73 56.68 73 56 73 C55.74476563 73.58652344 55.48953125 74.17304687 55.2265625 74.77734375 C52.22498479 80.21650845 46.37046566 84.70893116 40.44921875 86.55859375 C29.89554838 88.4606109 20.27417086 87.50304717 11 82 C4.93058933 77.66784818 1.90774403 72.12556313 0 65 C-0.51520617 59.93150242 -0.46885203 54.89207797 -0.390625 49.8046875 C-0.38314788 48.36167187 -0.37746192 46.91864595 -0.37347412 45.47561646 C-0.35833311 41.71072459 -0.31915446 37.94646779 -0.2746582 34.18182373 C-0.23345339 30.32703233 -0.21540978 26.4721365 -0.1953125 22.6171875 C-0.15264575 15.07780443 -0.08239424 7.53907276 0 0 Z " fill="#152934" transform="translate(228,706)"/>
<path d="M0 0 C6.93 0 13.86 0 21 0 C21.495 11.88 21.495 11.88 22 24 C29.59 24 37.18 24 45 24 C45 29.61 45 35.22 45 41 C37.41 41 29.82 41 22 41 C22.07403353 47.17541772 22.15689536 53.34939607 22.26245117 59.52416992 C22.29567422 61.62402861 22.3237143 63.72397603 22.34643555 65.82397461 C22.38002936 68.84527344 22.43234834 71.86576101 22.48828125 74.88671875 C22.49467117 75.82335861 22.5010611 76.75999847 22.50764465 77.72502136 C22.61702076 82.59057461 22.76957227 86.0853652 26 90 C28.41960129 91.20980064 29.98931011 91.13326398 32.6875 91.125 C33.51636719 91.12757813 34.34523438 91.13015625 35.19921875 91.1328125 C38.48420461 90.97703911 41.74437571 90.46508918 45 90 C45 96.27 45 102.54 45 109 C39.084708 109.985882 33.5943895 110.25539487 27.625 110.3125 C26.62210938 110.34150391 25.61921875 110.37050781 24.5859375 110.40039062 C16.46740369 110.46946192 11.0454352 108.97775887 5.1875 103.25 C0.03641704 95.59696247 -0.42256216 89.05371153 -0.29296875 80.0625 C-0.28872391 78.94182129 -0.28447906 77.82114258 -0.28010559 76.66650391 C-0.26340311 73.11075126 -0.22576568 69.55557941 -0.1875 66 C-0.17244231 63.57943531 -0.1587558 61.15886167 -0.14648438 58.73828125 C-0.11352706 52.82529935 -0.06180241 46.91274792 0 41 C-4.62 41 -9.24 41 -14 41 C-14 35.39 -14 29.78 -14 24 C-9.38 24 -4.76 24 0 24 C0 16.08 0 8.16 0 0 Z " fill="#132630" transform="translate(624,682)"/>
<path d="M0 0 C6.93 0 13.86 0 21 0 C21 7.92 21 15.84 21 24 C28.59 24 36.18 24 44 24 C44 29.61 44 35.22 44 41 C36.41 41 28.82 41 21 41 C21.07403353 47.17541772 21.15689536 53.34939607 21.26245117 59.52416992 C21.29567422 61.62402861 21.3237143 63.72397603 21.34643555 65.82397461 C21.38002936 68.84527344 21.43234834 71.86576101 21.48828125 74.88671875 C21.49467117 75.82335861 21.5010611 76.75999847 21.50764465 77.72502136 C21.61620696 82.5543734 21.71154886 86.1654943 25 90 C27.8883262 90.9627754 29.74764112 91.1343241 32.75 91.125 C33.97976563 91.12886719 33.97976563 91.12886719 35.234375 91.1328125 C38.50763901 90.97562186 41.75589968 90.4634429 45 90 C45 95.94 45 101.88 45 108 C38.35980994 109.89719716 33.32936498 110.39833487 26.5625 110.4375 C25.56412109 110.47037109 24.56574219 110.50324219 23.53710938 110.53710938 C15.83229826 110.59283122 11.1703073 108.7639216 5.47924805 103.62744141 C-0.85604677 96.89126531 -0.27999715 87.91495319 -0.1953125 79.28125 C-0.1924826 78.18276733 -0.18965271 77.08428467 -0.18673706 75.95251465 C-0.17560486 72.468229 -0.15051298 68.98420704 -0.125 65.5 C-0.11496121 63.1276079 -0.10583694 60.75521174 -0.09765625 58.3828125 C-0.07568829 52.58844115 -0.04120648 46.79426518 0 41 C-4.95 41 -9.9 41 -15 41 C-15 35.39 -15 29.78 -15 24 C-10.05 24 -5.1 24 0 24 C0 16.08 0 8.16 0 0 Z " fill="#142631" transform="translate(329,682)"/>
<path d="M0 0 C7.59 0 15.18 0 23 0 C23.82689478 27.774805 24.09205473 55.52736298 24.0625 83.3125 C24.06164398 84.1229842 24.06078796 84.9334684 24.05990601 85.76851273 C24.04847555 95.84570072 24.02755522 105.922843 24 116 C16.08 116 8.16 116 0 116 C0 77.72 0 39.44 0 0 Z " fill="#12242D" transform="translate(483,675)"/>
<path d="M0 0 C0 7.59 0 15.18 0 23 C-2.10375 22.896875 -4.2075 22.79375 -6.375 22.6875 C-13.28464966 22.70148715 -18.49472106 23.67981046 -24 28 C-27.64335503 32.44003533 -29.10545812 37.26669636 -29.20532227 42.93041992 C-29.22526749 43.93123093 -29.24521271 44.93204193 -29.26576233 45.96318054 C-29.28247482 47.04138565 -29.29918732 48.11959076 -29.31640625 49.23046875 C-29.33718735 50.33602615 -29.35796844 51.44158356 -29.37937927 52.5806427 C-29.44482332 56.1161979 -29.50373603 59.65182806 -29.5625 63.1875 C-29.6056901 65.58269008 -29.64930454 67.97787255 -29.69335938 70.37304688 C-29.80129889 76.24862217 -29.90041108 82.12425344 -30 88 C-37.26 88 -44.52 88 -52 88 C-52 59.95 -52 31.9 -52 3 C-42.1 2.505 -42.1 2.505 -32 2 C-31.34 6.29 -30.68 10.58 -30 15 C-29.21625 13.80375 -28.4325 12.6075 -27.625 11.375 C-20.40258466 1.6935242 -11.66407188 0 0 0 Z " fill="#142731" transform="translate(819,703)"/>
<path d="M0 0 C9.57 0 19.14 0 29 0 C28.67 1.32 28.34 2.64 28 4 C28 3.34 28 2.68 28 2 C19.09 2 10.18 2 1 2 C0.01 5.3 -0.98 8.6 -2 12 C-2.70860214 13.92436435 -3.43337434 15.84301557 -4.1875 17.75 C-5.64277164 21.65101334 -6.45590652 24.78286471 -6 29 C-6.99 29 -7.98 29 -9 29 C-9.33 30.98 -9.66 32.96 -10 35 C-8.55802132 33.55802132 -7.88213756 31.82308429 -7 30 C-4.525 30.99 -4.525 30.99 -2 32 C-2 32.66 -2 33.32 -2 34 C3.25055831 32.99042008 3.25055831 32.99042008 6.9375 29.375 C7.288125 28.59125 7.63875 27.8075 8 27 C8.99 27.66 9.98 28.32 11 29 C9.71175158 38.28541106 6.91037327 46.85560243 3.875 55.6875 C2.26625 60.410625 0.6575 65.13375 -1 70 C9.23 70.33 19.46 70.66 30 71 C30 71.33 30 71.66 30 72 C19.11 72 8.22 72 -3 72 C-0.5004576 76.16590399 1.6026822 78.6920853 5 82 C5.33 82.66 5.66 83.32 6 84 C5.505 85.485 5.505 85.485 5 87 C6.43835205 87.029729 6.43835205 87.029729 7.90576172 87.06005859 C11.45811553 87.13604145 15.01005576 87.2247693 18.56201172 87.31738281 C20.10034021 87.35570301 21.63875925 87.39055056 23.17724609 87.421875 C25.38672276 87.46746059 27.59557448 87.5254634 29.8046875 87.5859375 C30.49432587 87.59748871 31.18396423 87.60903992 31.89450073 87.62094116 C36.77225659 87.77225659 36.77225659 87.77225659 39 90 C38.505 91.485 38.505 91.485 38 93 C37.67 92.34 37.34 91.68 37 91 C22.15 91 7.3 91 -8 91 C-10.59104964 98.85231359 -10.59104964 98.85231359 -13.17553711 106.70678711 C-13.4978833 107.6788208 -13.82022949 108.65085449 -14.15234375 109.65234375 C-14.48226318 110.65257568 -14.81218262 111.65280762 -15.15209961 112.68334961 C-16 115 -16 115 -17 116 C-18.85369611 116.08737645 -20.71067541 116.10698153 -22.56640625 116.09765625 C-23.69111328 116.09443359 -24.81582031 116.09121094 -25.97460938 116.08789062 C-27.15861328 116.07951172 -28.34261719 116.07113281 -29.5625 116.0625 C-30.75037109 116.05798828 -31.93824219 116.05347656 -33.16210938 116.04882812 C-36.10812226 116.03699675 -39.05403681 116.02051287 -42 116 C-36.87727927 100.1961943 -31.35581098 84.5650563 -25.58372498 68.98799133 C-23.19804789 62.54660423 -20.83249571 56.09790026 -18.46875 49.6484375 C-17.66261541 47.4497819 -16.85646294 45.25113286 -16.05029297 43.05249023 C-14.84723256 39.77135333 -13.64429907 36.49017043 -12.44195557 33.20877075 C-11.30866317 30.11667525 -10.17400819 27.02508274 -9.0390625 23.93359375 C-8.70604126 23.02406952 -8.37302002 22.11454529 -8.02990723 21.17745972 C-5.42516113 14.08772196 -2.71237974 7.05218733 0 0 Z M-9 36 C-8 38 -8 38 -8 38 Z M-4 77 C-3.67 77.66 -3.34 78.32 -3 79 C-2.34 78.67 -1.68 78.34 -1 78 C-1.99 77.67 -2.98 77.34 -4 77 Z " fill="#13252E" transform="translate(152,675)"/>
<path d="M0 0 C5.81801481 5.18714573 9.50710378 10.97057337 10.46875 18.83203125 C10.54275592 28.25853554 9.80571416 35.54363095 3.35546875 42.8671875 C-1.32496144 47.28348506 -5.98231558 48.72058478 -12.375 49.3125 C-19.12535788 48.7305726 -24.15289449 47.38328419 -28.875 42.3125 C-35.41885788 33.90113743 -36.17143627 25.5652395 -35 15 C-32.6222981 6.93694866 -27.78211368 1.84341895 -20.6875 -2.375 C-13.73706531 -3.99138016 -6.18210433 -3.84778278 0 0 Z " fill="#FDF4E0" transform="translate(436,725)"/>
<path d="M0 0 C9.57 0 19.14 0 29 0 C31.25448335 10.14517506 31.25448335 10.14517506 29.3125 13.375 C28.95800781 14.00148438 28.60351562 14.62796875 28.23828125 15.2734375 C25.02697095 19.75103734 25.02697095 19.75103734 21.9375 20.5 C19.60312807 20.87267251 19.60312807 20.87267251 18 24 C17.34 24 16.68 24 16 24 C16.77920642 28.65447507 18.23836359 33.01134035 19.72265625 37.4765625 C20.26635096 39.13278791 20.80996845 40.78903867 21.35351562 42.4453125 C22.21017508 45.0441172 23.06827041 47.64243657 23.92797852 50.24023438 C24.75913321 52.75528998 25.58491866 55.27206032 26.41015625 57.7890625 C26.7991787 58.95630356 26.7991787 58.95630356 27.19606018 60.14712524 C28.197673 63.20833114 29 65.75700455 29 69 C18.44 69 7.88 69 -3 69 C-2.21753906 66.54304687 -1.43507812 64.08609375 -0.62890625 61.5546875 C0.12996857 59.16209308 0.88743825 56.76905809 1.64477539 54.37597656 C2.17000116 52.71893536 2.69667598 51.0623527 3.22485352 49.40625 C3.98579435 47.01943465 4.74142983 44.63099382 5.49609375 42.2421875 C5.73154404 41.50757294 5.96699432 40.77295837 6.20957947 40.01608276 C7.4638652 36.02638634 8.42525949 32.15757563 9 28 C8.34 27.67 7.68 27.34 7 27 C6.01 28.98 5.02 30.96 4 33 C3.67 32.34 3.34 31.68 3 31 C1.02 31.33 -0.96 31.66 -3 32 C-3 31.34 -3 30.68 -3 30 C-4.65 29.67 -6.3 29.34 -8 29 C-8 29.66 -8 30.32 -8 31 C-8.495 32.485 -8.495 32.485 -9 34 C-9.66 33.67 -10.32 33.34 -11 33 C-11.33 33.66 -11.66 34.32 -12 35 C-11.125 29.25 -11.125 29.25 -10 27 C-9.01 27 -8.02 27 -7 27 C-7.24621094 26.23429688 -7.49242187 25.46859375 -7.74609375 24.6796875 C-8.12066733 19.25125191 -6.09663131 15.09032337 -4.0625 10.125 C-2.721875 6.78375 -1.38125 3.4425 0 0 Z " fill="#162A34" transform="translate(153,677)"/>
<path d="M0 0 C2.296875 2.140625 2.296875 2.140625 4 4 C3.01 4.33 2.02 4.66 1 5 C0.67 5.66 0.34 6.32 0 7 C1.65 6.67 3.3 6.34 5 6 C5 6.99 5 7.98 5 9 C4.01 9.33 3.02 9.66 2 10 C2 10.928125 2 11.85625 2 12.8125 C2 19.55555556 2 19.55555556 0 23 C-0.66 23.66 -1.32 24.32 -2 25 C-1.505 28.465 -1.505 28.465 -1 32 C-14.2 32 -27.4 32 -41 32 C-40.67 29.69 -40.34 27.38 -40 25 C-40 24.67 -40 24.34 -40 24 C-41.32 24.33 -42.64 24.66 -44 25 C-44 24.01 -44 23.02 -44 22 C-45.65 21.67 -47.3 21.34 -49 21 C-48.67 19.68 -48.34 18.36 -48 17 C-47.34 17 -46.68 17 -46 17 C-46.33 15.35 -46.66 13.7 -47 12 C-48.32 12 -49.64 12 -51 12 C-51.66 13.32 -52.32 14.64 -53 16 C-53.99 15.67 -54.98 15.34 -56 15 C-42.27271986 -1.43935677 -20.79006465 -11.77619046 0 0 Z " fill="#14252F" transform="translate(735,707)"/>
<path d="M0 0 C7.26 0 14.52 0 22 0 C22.495 6.93 22.495 6.93 23 14 C21.35 14.66 19.7 15.32 18 16 C18.57452746 19.93075644 18.57452746 19.93075644 21 23 C20.34 24.32 19.68 25.64 19 27 C19.99 27 20.98 27 22 27 C21.84152588 28.07830078 21.68305176 29.15660156 21.51977539 30.26757812 C20.83857317 35.74240616 20.7711121 41.20765191 20.68359375 46.71875 C20.66281265 47.81723267 20.64203156 48.91571533 20.62062073 50.04748535 C20.55561377 53.53159769 20.49646889 57.01578076 20.4375 60.5 C20.39426825 62.87240294 20.35065252 65.24479891 20.30664062 67.6171875 C20.1999829 73.41138718 20.0985799 79.20565749 20 85 C14.06 85 8.12 85 2 85 C2 57.61 2 30.22 2 2 C1.34 2 0.68 2 0 2 C0 1.34 0 0.68 0 0 Z " fill="#172A35" transform="translate(827,705)"/>
<path d="M0 0 C0.66 0 1.32 0 2 0 C2.33 3.3 2.66 6.6 3 10 C3.33 10 3.66 10 4 10 C4.02315806 18.55351574 4.04093279 27.10701841 4.05181217 35.66055775 C4.0570334 39.63219624 4.0641173 43.6038133 4.07543945 47.57543945 C4.08629527 51.40741372 4.09228257 55.23936736 4.09487724 59.07135582 C4.09672662 60.53420016 4.10033792 61.99704335 4.10573006 63.45987892 C4.11297622 65.50688757 4.11398943 67.55381069 4.11352539 69.60083008 C4.115746 70.76665115 4.11796661 71.93247223 4.12025452 73.13362122 C4 76 4 76 3 79 C-3.93 79 -10.86 79 -18 79 C-18.06881421 72.50342923 -18.12856559 66.00811927 -18.16479492 59.51147461 C-18.17989525 57.30081908 -18.20037709 55.09019357 -18.22631836 52.87963867 C-18.26264655 49.70484007 -18.27971384 46.53043703 -18.29296875 43.35546875 C-18.30845261 42.36475876 -18.32393646 41.37404877 -18.33988953 40.35331726 C-18.34011612 39.43258926 -18.34034271 38.51186127 -18.34057617 37.56323242 C-18.35056892 36.34744759 -18.35056892 36.34744759 -18.36076355 35.10710144 C-17.90819417 32.46379229 -17.14980703 31.56737444 -15 30 C-14.01 30 -13.02 30 -12 30 C-11.67 29.01 -11.34 28.02 -11 27 C-4.25 28.875 -4.25 28.875 -2 30 C-2.33 30.99 -2.66 31.98 -3 33 C-1.68 33 -0.36 33 1 33 C1 27.06 1 21.12 1 15 C0.34 15 -0.32 15 -1 15 C-1.33 15.66 -1.66 16.32 -2 17 C-4.475 16.01 -4.475 16.01 -7 15 C-7 14.01 -7 13.02 -7 12 C-7.33 12 -7.66 12 -8 12 C-8 10.02 -8 8.04 -8 6 C-7.05125 5.566875 -6.1025 5.13375 -5.125 4.6875 C-1.79958063 3.20697799 -1.79958063 3.20697799 0 0 Z " fill="#162B35" transform="translate(503,710)"/>
<path d="M0 0 C3.3 0 6.6 0 10 0 C10 0.33 10 0.66 10 1 C7.03 1 4.06 1 1 1 C1.33 21.13 1.66 41.26 2 62 C2.66 61.01 3.32 60.02 4 59 C4.495 58.505 4.495 58.505 5 58 C3.94729537 56.84188612 3.94729537 56.84188612 2 56 C2 49.4 2 42.8 2 36 C3.32 35.34 4.64 34.68 6 34 C9 35 9 35 10 37 C11.485 36.505 11.485 36.505 13 36 C13.33 34.35 13.66 32.7 14 31 C16.96175123 31.61277612 18.38058783 32.25372522 21 34 C21.36076355 36.17666626 21.36076355 36.17666626 21.34057617 38.90869141 C21.34034958 39.92959869 21.34012299 40.95050598 21.33988953 42.00234985 C21.32440567 43.10759003 21.30892181 44.2128302 21.29296875 45.3515625 C21.28872391 46.4807309 21.28447906 47.60989929 21.28010559 48.77328491 C21.26327132 52.39076273 21.22560975 56.00768969 21.1875 59.625 C21.17245934 62.07290864 21.15876986 64.52082598 21.14648438 66.96875 C21.11335214 72.97937991 21.06153674 78.98959647 21 85 C14.07 85 7.14 85 0 85 C0 56.95 0 28.9 0 0 Z " fill="#11232C" transform="translate(525,706)"/>
<path d="M0 0 C6.93 0 13.86 0 21 0 C21 4.29 21 8.58 21 13 C21.66 13 22.32 13 23 13 C22.67 14.65 22.34 16.3 22 18 C22.99 18.66 23.98 19.32 25 20 C24.86042877 20.56842621 24.72085754 21.13685242 24.57705688 21.72250366 C22.95818117 28.92090298 22.65839542 35.86661903 22.5859375 43.2265625 C22.56657135 44.45539154 22.5472052 45.68422058 22.5272522 46.95028687 C22.46788605 50.84178921 22.42124348 54.73332184 22.375 58.625 C22.33678068 61.27735603 22.2977267 63.92970018 22.2578125 66.58203125 C22.16222011 73.0545813 22.0770491 79.52720406 22 86 C21.67 86 21.34 86 21 86 C20.67 69.17 20.34 52.34 20 35 C18.02 34.01 16.04 33.02 14 32 C13.87625 33.175625 13.87625 33.175625 13.75 34.375 C13 37 13 37 10.9375 38.3125 C10.298125 38.539375 9.65875 38.76625 9 39 C9 38.01 9 37.02 9 36 C5.535 36.495 5.535 36.495 2 37 C2.0721875 37.85722656 2.144375 38.71445312 2.21875 39.59765625 C2.69092702 45.41461476 3.13573649 51.16333091 3 57 C4.485 56.505 4.485 56.505 6 56 C6.33 57.32 6.66 58.64 7 60 C5.515 60.495 5.515 60.495 4 61 C2.77479736 64.00847418 2.77479736 64.00847418 2 67 C1.67 67 1.34 67 1 67 C1.00222061 66.19011627 1.00444122 65.38023254 1.00672913 64.54580688 C1.02674377 56.92346733 1.04198014 49.30114046 1.05181217 41.67878151 C1.05703678 37.7598013 1.0641268 33.84084274 1.07543945 29.921875 C1.08628329 26.14177614 1.09228002 22.36169814 1.09487724 18.58158493 C1.09672878 17.13745164 1.10034424 15.69331953 1.10573006 14.2491951 C1.1129602 12.23075723 1.11340823 10.21229847 1.11352539 8.19384766 C1.115746 7.04357086 1.11796661 5.89329407 1.12025452 4.7081604 C1.18552097 2.03179541 1.18552097 2.03179541 0 0 Z " fill="#152833" transform="translate(525,705)"/>
<path d="M0 0 C2.28125 -0.23828125 2.28125 -0.23828125 5 0 C14.51308105 8.16270725 18.34580255 22.09784764 20 34 C20 36.64 20 39.28 20 42 C-0.46 42 -20.92 42 -42 42 C-42 41.67 -42 41.34 -42 41 C-30.78 40.67 -19.56 40.34 -8 40 C-8.495 36.535 -8.495 36.535 -9 33 C-8.01 33 -7.02 33 -6 33 C-6 32.01 -6 31.02 -6 30 C-17.55 29.67 -29.1 29.34 -41 29 C-41 28.67 -41 28.34 -41 28 C-28.13 28 -15.26 28 -2 28 C-2.66 25.03 -3.32 22.06 -4 19 C-2.68 18.34 -1.36 17.68 0 17 C0.89582173 15.00339546 0.89582173 15.00339546 1 13 C0.505 12.505 0.505 12.505 0 12 C-0.04092937 9.66702567 -0.04241723 7.33294775 0 5 C1.32 4.67 2.64 4.34 4 4 C1.21081851 2.89459074 1.21081851 2.89459074 -1 3 C-0.67 2.01 -0.34 1.02 0 0 Z " fill="#12222B" transform="translate(736,711)"/>
<path d="M0 0 C1.72251451 2.58377177 2.57072806 4.35652563 3.51220703 7.24023438 C3.93241623 8.51670837 3.93241623 8.51670837 4.3611145 9.81896973 C4.65702484 10.73464722 4.95293518 11.65032471 5.2578125 12.59375 C5.7196846 14.0083551 5.7196846 14.0083551 6.19088745 15.45153809 C6.8403019 17.44465605 7.48739005 19.43853327 8.13232422 21.43310547 C9.12182773 24.4901992 10.12093089 27.54403554 11.12109375 30.59765625 C11.75057921 32.53366593 12.37950449 34.46985787 13.0078125 36.40625 C13.3077713 37.32192749 13.6077301 38.23760498 13.91677856 39.18103027 C14.19061371 40.03201294 14.46444885 40.88299561 14.74658203 41.75976562 C14.98925812 42.50794556 15.2319342 43.25612549 15.48196411 44.02697754 C16 46 16 46 16 49 C5.44 49 -5.12 49 -16 49 C-15.25234375 46.62425781 -14.5046875 44.24851562 -13.734375 41.80078125 C-12.99615926 39.45405075 -12.25808309 37.10727641 -11.52001953 34.76049805 C-11.01397989 33.15172839 -10.50779924 31.54300308 -10.00146484 29.93432617 C-9.26621384 27.59826631 -8.53149874 25.26203844 -7.796875 22.92578125 C-7.55714966 22.16443878 -7.31742432 21.40309631 -7.07043457 20.61868286 C-5.95838388 17.08048256 -4.85579351 13.5401266 -3.78320312 9.98974609 C-3.42677734 8.81105957 -3.07035156 7.63237305 -2.703125 6.41796875 C-2.39536133 5.38824951 -2.08759766 4.35853027 -1.77050781 3.29760742 C-1 1 -1 1 0 0 Z " fill="#F9F1E0" transform="translate(166,697)"/>
<path d="M0 0 C0 7.59 0 15.18 0 23 C-2.10375 22.896875 -4.2075 22.79375 -6.375 22.6875 C-13.28464966 22.70148715 -18.49472106 23.67981046 -24 28 C-27.64335503 32.44003533 -29.10545812 37.26669636 -29.20532227 42.93041992 C-29.22526749 43.93123093 -29.24521271 44.93204193 -29.26576233 45.96318054 C-29.28247482 47.04138565 -29.29918732 48.11959076 -29.31640625 49.23046875 C-29.33718735 50.33602615 -29.35796844 51.44158356 -29.37937927 52.5806427 C-29.44482332 56.1161979 -29.50373603 59.65182806 -29.5625 63.1875 C-29.6056901 65.58269008 -29.64930454 67.97787255 -29.69335938 70.37304688 C-29.80049952 76.24862088 -29.90178168 82.12427036 -30 88 C-36.93 88 -43.86 88 -51 88 C-51 80.08 -51 72.16 -51 64 C-50.67 64 -50.34 64 -50 64 C-50 71.59 -50 79.18 -50 87 C-44.06 87 -38.12 87 -32 87 C-32.01047363 85.67871094 -32.02094727 84.35742188 -32.03173828 82.99609375 C-32.06808697 78.06854997 -32.09095446 73.14101792 -32.10986328 68.21337891 C-32.11988705 66.08542891 -32.13350961 63.95749256 -32.15087891 61.82958984 C-32.17528692 58.76135882 -32.18651961 55.6933108 -32.1953125 52.625 C-32.20563507 51.68197021 -32.21595764 50.73894043 -32.22659302 49.76733398 C-32.22753823 44.13386884 -31.49425314 39.42451561 -30 34 C-30 32.68 -30 31.36 -30 30 C-30.99 30 -31.98 30 -33 30 C-33.33 29.34 -33.66 28.68 -34 28 C-33.34 28 -32.68 28 -32 28 C-32.495 25.525 -32.495 25.525 -33 23 C-32.01 23 -31.02 23 -30 23 C-28.3516367 21.24755753 -28.3516367 21.24755753 -27 19 C-26.5875 18.38125 -26.175 17.7625 -25.75 17.125 C-24.71203694 14.18410467 -25.32008712 11.99161666 -26 9 C-17.15288485 1.72936547 -12.00288513 0 0 0 Z " fill="#122029" transform="translate(819,703)"/>
<path d="M0 0 C6.93 0 13.86 0 21 0 C21 28.05 21 56.1 21 85 C14.4 85 7.8 85 1 85 C1 81.04 1 77.08 1 73 C1.33 73 1.66 73 2 73 C2 76.63 2 80.26 2 84 C7.94 84 13.88 84 20 84 C19.34 61.89 18.68 39.78 18 17 C18 17.33 18 17.66 18 18 C17.67 18.99 17.34 19.98 17 21 C15.68 21 14.36 21 13 21 C13 21.66 13 22.32 13 23 C12.34 23 11.68 23 11 23 C11 23.66 11 24.32 11 25 C8.36 25.99 5.72 26.98 3 28 C2 27 2 27 1.88647461 24.59155273 C1.89171143 23.54942627 1.89694824 22.5072998 1.90234375 21.43359375 C1.90717773 19.7465332 1.90717773 19.7465332 1.91210938 18.02539062 C1.92048828 16.84138672 1.92886719 15.65738281 1.9375 14.4375 C1.94201172 13.24962891 1.94652344 12.06175781 1.95117188 10.83789062 C1.96300314 7.89190588 1.98093924 4.94594684 2 2 C7.28 2 12.56 2 18 2 C17.96744792 5.09244792 17.93489583 8.18489583 17.90234375 11.27734375 C17.68737429 13.91447634 17.68737429 13.91447634 19 15 C19 10.38 19 5.76 19 1 C13.06 1 7.12 1 1 1 C1.00523682 2.52399414 1.01047363 4.04798828 1.01586914 5.61816406 C1.03395997 11.26871148 1.045447 16.91925634 1.05493164 22.56982422 C1.05996249 25.01611766 1.06678784 27.46240809 1.07543945 29.90869141 C1.08755952 33.42351016 1.09324079 36.93828918 1.09765625 40.453125 C1.10281754 41.5480426 1.10797882 42.64296021 1.11329651 43.77105713 C1.11337204 44.79181335 1.11344757 45.81256958 1.11352539 46.86425781 C1.115746 47.76138489 1.11796661 48.65851196 1.12025452 49.58282471 C1.00680116 51.86329333 0.64135959 53.81529132 0 56 C-0.66 55.67 -1.32 55.34 -2 55 C-1.83923477 54.28137283 -1.67846954 53.56274567 -1.51283264 52.82234192 C-1.0189752 50.10442878 -0.84356081 47.60093162 -0.79467773 44.8425293 C-0.7647599 43.34153938 -0.7647599 43.34153938 -0.73423767 41.81022644 C-0.71752518 40.7423439 -0.70081268 39.67446136 -0.68359375 38.57421875 C-0.66281265 37.47149124 -0.64203156 36.36876373 -0.62062073 35.23262024 C-0.55535068 31.71764222 -0.49634505 28.20259088 -0.4375 24.6875 C-0.39429335 22.30142477 -0.35067837 19.91535691 -0.30664062 17.52929688 C-0.19969236 11.68627265 -0.09836143 5.84317483 0 0 Z " fill="#0D1B23" transform="translate(285,706)"/>
<path d="M0 0 C5.73062436 4.15470266 7.77085548 9.14481392 9.5 15.8125 C9.5 16.4725 9.5 17.1325 9.5 17.8125 C-3.37 17.8125 -16.24 17.8125 -29.5 17.8125 C-28.33726112 10.8360667 -26.09391931 6.25056056 -20.96875 1.34765625 C-14.90887439 -2.82593455 -6.68932029 -2.26959081 0 0 Z " fill="#FCF4E1" transform="translate(724.5,721.1875)"/>
<path d="M0 0 C0.66 0.33 1.32 0.66 2 1 C2.33 7.27 2.66 13.54 3 20 C4.65 20 6.3 20 8 20 C10.19256847 22.8190166 11.35177251 25.49957156 12 29 C12.99 28.34 13.98 27.68 15 27 C16 27 17 27 18 27 C18 23.7 18 20.4 18 17 C17.34 16.67 16.68 16.34 16 16 C16.99 16 17.98 16 19 16 C19 27.22 19 38.44 19 50 C15.35510841 51.8224458 10.79496266 51.03138047 6.765625 50.9609375 C2.75441722 50.81306608 2.75441722 50.81306608 -1 52 C-1.02543977 45.71949126 -1.04290455 39.43899591 -1.05493164 33.15844727 C-1.05994778 31.02367659 -1.06676224 28.88890933 -1.07543945 26.75415039 C-1.08762435 23.67853958 -1.09325562 20.60297437 -1.09765625 17.52734375 C-1.10281754 16.57915268 -1.10797882 15.63096161 -1.11329651 14.65403748 C-1.1137157 9.65687882 -0.85595812 4.92546142 0 0 Z " fill="#172B35" transform="translate(583,739)"/>
<path d="M0 0 C0.33 0 0.66 0 1 0 C1.02315806 8.55351574 1.04093279 17.10701841 1.05181217 25.66055775 C1.0570334 29.63219624 1.0641173 33.6038133 1.07543945 37.57543945 C1.08629527 41.40741372 1.09228257 45.23936736 1.09487724 49.07135582 C1.09672662 50.53420016 1.10033792 51.99704335 1.10573006 53.45987892 C1.11297622 55.50688757 1.11398943 57.55381069 1.11352539 59.60083008 C1.115746 60.76665115 1.11796661 61.93247223 1.12025452 63.13362122 C1 66 1 66 0 69 C-6.93 69 -13.86 69 -21 69 C-20.67 67.02 -20.34 65.04 -20 63 C-18.515 62.505 -18.515 62.505 -17 62 C-17.185625 61.278125 -17.37125 60.55625 -17.5625 59.8125 C-18.13508769 56.13157915 -17.38527536 53.34846375 -16.375 49.8125 C-15.78653641 47.91096507 -15.78653641 47.91096507 -17 46 C-16 44 -15 42 -14 40 C-14.33 39.34 -14.66 38.68 -15 38 C-12.66666667 38 -10.33333333 38 -8 38 C-7.01 37.505 -7.01 37.505 -6 37 C-5.34 37.66 -4.68 38.32 -4 39 C-3.67 38.67 -3.34 38.34 -3 38 C-2.34 39.32 -1.68 40.64 -1 42 C-0.67 28.14 -0.34 14.28 0 0 Z " fill="#142833" transform="translate(506,720)"/>
<path d="M0 0 C0.33 0 0.66 0 1 0 C1 12.54 1 25.08 1 38 C2.98 37.505 2.98 37.505 5 37 C7.625 37.1875 7.625 37.1875 10 38 C11.375 39.75 11.375 39.75 12 42 C11.773125 42.804375 11.54625 43.60875 11.3125 44.4375 C11.1578125 45.7059375 11.1578125 45.7059375 11 47 C13.333492 49.83411155 13.333492 49.83411155 16 52 C17.25428211 50.05714853 17.25428211 50.05714853 16.4375 48.0625 C16.293125 47.381875 16.14875 46.70125 16 46 C16.66 45.01 17.32 44.02 18 43 C27 56.5 27 56.5 27 59 C23.94152152 59.54372951 21.11227195 60 18 60 C18.99 59.505 18.99 59.505 20 59 C19.34 58.01 18.68 57.02 18 56 C16.45833358 57.37485532 16.45833358 57.37485532 15 59 C15 59.66 15 60.32 15 61 C14.34 61 13.68 61 13 61 C12.87625 61.639375 12.7525 62.27875 12.625 62.9375 C12.41875 63.618125 12.2125 64.29875 12 65 C11.01 65.495 11.01 65.495 10 66 C9.32845316 68.28341743 9.32845316 68.28341743 10 71 C13.27426765 73.94763754 16.60737515 75.85493491 21 76.3125 C21.66 76.209375 22.32 76.10625 23 76 C23 76.33 23 76.66 23 77 C25.1249266 77.16759984 27.24994376 77.33405201 29.375 77.5 C30.55835938 77.5928125 31.74171875 77.685625 32.9609375 77.78125 C34.63786843 77.90195454 36.31873056 78 38 78 C38 78.66 38 79.32 38 80 C26.99306335 80.67665594 18.15080752 80.10401841 8.84375 73.4609375 C3.36505513 68.56261285 0.45700815 62.1368675 -0.3458252 54.86956787 C-0.46025727 51.35126542 -0.45032862 47.85556804 -0.390625 44.3359375 C-0.38496521 43.06271637 -0.37930542 41.78949524 -0.37347412 40.47769165 C-0.3549977 37.12689809 -0.31919754 33.77723918 -0.2746582 30.42675781 C-0.2334059 26.99423922 -0.21539987 23.56160239 -0.1953125 20.12890625 C-0.15140027 13.41896311 -0.08460435 6.7095469 0 0 Z " fill="#14252E" transform="translate(228,713)"/>
<path d="M0 0 C0.33 0 0.66 0 1 0 C0.67 8.25 0.34 16.5 0 25 C-0.99 25 -1.98 25 -3 25 C-4.01111093 28.04913228 -4.01111093 28.04913228 -3 31 C-4.65 31 -6.3 31 -8 31 C-7.67 29.35 -7.34 27.7 -7 26 C-9.60582371 25.06934867 -10.64198224 24.85082593 -13.25 25.9375 C-13.8275 26.288125 -14.405 26.63875 -15 27 C-15.33 25.68 -15.66 24.36 -16 23 C-16.66 23 -17.32 23 -18 23 C-19 17.25 -19 17.25 -19 15 C-18.88960666 23.40215965 -19.04541351 31.64736824 -20 40 C-20.33 40 -20.66 40 -21 40 C-21 27.13 -21 14.26 -21 1 C-11.0625 1.0625 -11.0625 1.0625 -7.92602539 1.09008789 C-7.11641357 1.09258545 -6.30680176 1.09508301 -5.47265625 1.09765625 C-4.64000244 1.10289307 -3.80734863 1.10812988 -2.94946289 1.11352539 C-0.99483202 1.21643292 -0.99483202 1.21643292 0 0 Z " fill="#162A35" transform="translate(505,675)"/>
<path d="M0 0 C0.66 0 1.32 0 2 0 C2 27.39 2 54.78 2 83 C7.94 83 13.88 83 20 83 C19.98952637 81.52724609 19.97905273 80.05449219 19.96826172 78.53710938 C19.93194331 73.05048065 19.90905642 67.56386247 19.89013672 62.07714844 C19.8801061 59.70668752 19.8664784 57.3362389 19.84912109 54.96582031 C19.82474357 51.55009927 19.81348721 48.13454245 19.8046875 44.71875 C19.79436493 43.66635132 19.78404236 42.61395264 19.77340698 41.52966309 C19.7725202 35.6567937 20.29855204 30.62831921 22 25 C21.01 25 20.02 25 19 25 C19.165 24.401875 19.33 23.80375 19.5 23.1875 C20.1114124 20.88655664 20.1114124 20.88655664 20 18 C20.99 18 21.98 18 23 18 C22.67 17.34 22.34 16.68 22 16 C22.99 15.67 23.98 15.34 25 15 C25 15.99 25 16.98 25 18 C26.051875 17.360625 27.10375 16.72125 28.1875 16.0625 C33.45289104 13.07631631 37.95898669 12.77625877 44 13 C44.99 13.33 45.98 13.66 47 14 C46.67 14.66 46.34 15.32 46 16 C44.69675781 15.93039062 44.69675781 15.93039062 43.3671875 15.859375 C36.24024559 15.61496417 36.24024559 15.61496417 29.4375 17.4375 C22.73403249 24.48473508 22.40052508 32.59048909 22.390625 41.91015625 C22.37408875 43.11820419 22.35755249 44.32625214 22.34051514 45.57090759 C22.29221608 49.40149106 22.27070324 53.231678 22.25 57.0625 C22.22182537 59.67124371 22.19189588 62.2799691 22.16015625 64.88867188 C22.0864612 71.25908193 22.03677553 77.62927417 22 84 C14.74 84 7.48 84 0 84 C0 56.28 0 28.56 0 0 Z " fill="#050D16" transform="translate(827,707)"/>
<path d="M0 0 C2.44332726 1.07518118 4.76754523 2.19808566 7.125 3.4375 C7.78371094 3.77587891 8.44242188 4.11425781 9.12109375 4.46289062 C10.75106547 5.30149926 12.37601909 6.14984811 14 7 C10.85613943 13.64660933 6.69287011 18.20908137 -0.2109375 20.84375 C-6.38020833 23 -6.38020833 23 -10 23 C-9.814375 22.05125 -9.62875 21.1025 -9.4375 20.125 C-8.71313368 17.10131207 -8.71313368 17.10131207 -10 15 C-6.25 13 -6.25 13 -4 13 C-3.67 11.02 -3.34 9.04 -3 7 C-3.99 6.67 -4.98 6.34 -6 6 C-2.25 1.125 -2.25 1.125 0 0 Z " fill="#172A34" transform="translate(739,767)"/>
<path d="M0 0 C7.26 0 14.52 0 22 0 C21.67 0.66 21.34 1.32 21 2 C14.4 1.67 7.8 1.34 1 1 C1.03029297 3.28615234 1.06058594 5.57230469 1.09179688 7.92773438 C1.19350287 15.62689049 1.29285196 23.32607586 1.39115143 31.02527618 C1.45060426 35.6765337 1.51076259 40.32777947 1.57275391 44.97900391 C1.87882784 67.98761072 2.07346459 90.98925763 2 114 C8.93 114 15.86 114 23 114 C23.495 112.515 23.495 112.515 24 111 C24 112.65 24 114.3 24 116 C16.08 116 8.16 116 0 116 C0 77.72 0 39.44 0 0 Z " fill="#020508" transform="translate(483,675)"/>
<path d="M0 0 C7.26 0 14.52 0 22 0 C22 19.14 22 38.28 22 58 C19 55 19 55 18.63923645 52.62715149 C18.64589828 51.69227402 18.65256012 50.75739655 18.65942383 49.79418945 C18.65965042 48.73331619 18.65987701 47.67244293 18.66011047 46.579422 C18.67559433 45.43559555 18.69107819 44.2917691 18.70703125 43.11328125 C18.71127609 41.94113571 18.71552094 40.76899017 18.71989441 39.56132507 C18.73670928 35.81148466 18.77436768 32.06217843 18.8125 28.3125 C18.82754316 25.77279421 18.8412322 23.23308001 18.85351562 20.69335938 C18.88662217 14.46203324 18.93842467 8.23110724 19 2 C15.04 2 11.08 2 7 2 C6.67 2.99 6.34 3.98 6 5 C5.67 4.01 5.34 3.02 5 2 C4.01 2 3.02 2 2 2 C1.67 3.65 1.34 5.3 1 7 C0.67 7 0.34 7 0 7 C0 4.69 0 2.38 0 0 Z " fill="#273237" transform="translate(228,706)"/>
<path d="M0 0 C2 2 2 2 2 6 C2.66 5.34 3.32 4.68 4 4 C3.83923477 4.86992584 3.67846954 5.73985168 3.51283264 6.63613892 C3.03815638 9.74971802 2.84448633 12.67672047 2.79467773 15.82177734 C2.77473251 16.94248627 2.75478729 18.06319519 2.73423767 19.21786499 C2.71752518 20.41182892 2.70081268 21.60579285 2.68359375 22.8359375 C2.66281265 24.07042633 2.64203156 25.30491516 2.62062073 26.57681274 C2.55538164 30.50948671 2.49635948 34.44222589 2.4375 38.375 C2.39479388 41.04558857 2.35067536 43.71615149 2.30664062 46.38671875 C2.19972653 52.92441079 2.09791299 59.46216729 2 66 C1.67 66 1.34 66 1 66 C0.67 49.17 0.34 32.34 0 15 C-1.98 14.01 -3.96 13.02 -6 12 C-6.0825 12.78375 -6.165 13.5675 -6.25 14.375 C-7 17 -7 17 -9.0625 18.3125 C-10.0215625 18.6528125 -10.0215625 18.6528125 -11 19 C-11 18.01 -11 17.02 -11 16 C-12.32 15.67 -13.64 15.34 -15 15 C-13.11192137 12.30274481 -11.80175356 10.86783571 -9 9 C-8.74984127 5.41642759 -8.74984127 5.41642759 -9 2 C-7.329375 1.7834375 -7.329375 1.7834375 -5.625 1.5625 C-2.17857953 1.21627965 -2.17857953 1.21627965 0 0 Z " fill="#2E3E45" transform="translate(545,725)"/>
<path d="M0 0 C0.66 0.33 1.32 0.66 2 1 C1.67 2.65 1.34 4.3 1 6 C0.34 6 -0.32 6 -1 6 C-0.67 7.32 -0.34 8.64 0 10 C-0.66 10 -1.32 10 -2 10 C-2 11.32 -2 12.64 -2 14 C-1.01 13.67 -0.02 13.34 1 13 C1.66 13.33 2.32 13.66 3 14 C3 15.32 3 16.64 3 18 C-0.61867559 19.2062252 -3.92506251 19.10816918 -7.6875 19.0625 C-8.38939453 19.05798828 -9.09128906 19.05347656 -9.81445312 19.04882812 C-11.54300538 19.03706927 -13.27151365 19.01913454 -15 19 C-14.88637738 17.5199159 -14.75877092 16.04089926 -14.625 14.5625 C-14.55539063 13.73878906 -14.48578125 12.91507813 -14.4140625 12.06640625 C-14.27742188 11.38449219 -14.14078125 10.70257812 -14 10 C-13.34 9.67 -12.68 9.34 -12 9 C-11.67 8.01 -11.34 7.02 -11 6 C-8.10441559 4.5522078 -6.25811062 4 -3 4 C-2.67 3.01 -2.34 2.02 -2 1 C-1.34 0.67 -0.68 0.34 0 0 Z " fill="#162A35" transform="translate(127,771)"/>
<path d="M0 0 C5.94 0 11.88 0 18 0 C18 1.98 18 3.96 18 6 C17.67 6 17.34 6 17 6 C17 4.35 17 2.7 17 1 C11.72 1 6.44 1 1 1 C1 8.59 1 16.18 1 24 C-0.32 24 -1.64 24 -3 24 C-3 25.32 -3 26.64 -3 28 C-3.99 28.33 -4.98 28.66 -6 29 C-5.49396008 31.16874252 -5.00016187 32.99967627 -4 35 C-3.34 35 -2.68 35 -2 35 C-2 35.66 -2 36.32 -2 37 C-1.34 37.33 -0.68 37.66 0 38 C-4.62 38 -9.24 38 -14 38 C-14 33.05 -14 28.1 -14 23 C-7.565 22.505 -7.565 22.505 -1 22 C-0.67 14.74 -0.34 7.48 0 0 Z " fill="#192E39" transform="translate(330,684)"/>
<path d="M0 0 C6.3746801 7.71330156 5.27437926 18.39302754 5.1953125 27.8828125 C5.1924826 29.17822968 5.18965271 30.47364685 5.18673706 31.80831909 C5.17917608 35.21789565 5.15959446 38.6272962 5.1373291 42.0368042 C5.11670627 45.52972026 5.10770055 49.02266534 5.09765625 52.515625 C5.0763397 59.34382869 5.04122107 66.17188772 5 73 C-1.93 73 -8.86 73 -16 73 C-16 60.46 -16 47.92 -16 35 C-15.67 35 -15.34 35 -15 35 C-15 47.21 -15 59.42 -15 72 C-9.06 71.67 -3.12 71.34 3 71 C2.91411236 63.21913801 2.82016649 55.43847035 2.71247292 47.6578846 C2.66276626 44.04409666 2.61643664 40.43033438 2.578125 36.81640625 C2.54094499 33.32141978 2.49450217 29.82666255 2.44193649 26.33187485 C2.41469263 24.36578698 2.39676537 22.39957702 2.37905884 20.43338013 C2.26454959 13.39956389 1.71595353 6.83248892 0 0 Z " fill="#070D14" transform="translate(599,718)"/>
<path d="M0 0 C2.66666667 1.33333333 5.33333333 2.66666667 8 4 C6.68 4.33 5.36 4.66 4 5 C4 5.66 4 6.32 4 7 C5.32 7.66 6.64 8.32 8 9 C7.34 9.66 6.68 10.32 6 11 C6 11.99 6 12.98 6 14 C10.29 14.33 14.58 14.66 19 15 C18.67 13.02 18.34 11.04 18 9 C20.32789515 11.83395931 21.07377893 13.29511572 22 17 C13.42 17 4.84 17 -4 17 C-7 9 -7 9 -6 6 C-5.01 7.485 -5.01 7.485 -4 9 C-3.01 8.34 -2.02 7.68 -1 7 C-2.32 7 -3.64 7 -5 7 C-5 6.01 -5 5.02 -5 4 C-4.01 4 -3.02 4 -2 4 C-1.34 2.68 -0.68 1.36 0 0 Z " fill="#0F1F28" transform="translate(202,774)"/>
<path d="M0 0 C0.66 0 1.32 0 2 0 C3.33333333 2.66666667 4.66666667 5.33333333 6 8 C6.35320312 8.60328125 6.70640625 9.2065625 7.0703125 9.828125 C8 12 8 12 9 19 C4.05 18.67 -0.9 18.34 -6 18 C-5.67 17.01 -5.34 16.02 -5 15 C-5.99 14.67 -6.98 14.34 -8 14 C-7.34 14 -6.68 14 -6 14 C-5.67 13.34 -5.34 12.68 -5 12 C-6.24374761 8.83685974 -6.24374761 8.83685974 -9 7 C-6.69 6.34 -4.38 5.68 -2 5 C-1.855625 4.360625 -1.71125 3.72125 -1.5625 3.0625 C-1 1 -1 1 0 0 Z " fill="#162A35" transform="translate(213,771)"/>
<path d="M0 0 C0.33 0 0.66 0 1 0 C1.02315806 8.55351574 1.04093279 17.10701841 1.05181217 25.66055775 C1.0570334 29.63219624 1.0641173 33.6038133 1.07543945 37.57543945 C1.08629527 41.40741372 1.09228257 45.23936736 1.09487724 49.07135582 C1.09672662 50.53420016 1.10033792 51.99704335 1.10573006 53.45987892 C1.11297622 55.50688757 1.11398943 57.55381069 1.11352539 59.60083008 C1.115746 60.76665115 1.11796661 61.93247223 1.12025452 63.13362122 C1 66 1 66 0 69 C-6.93 69 -13.86 69 -21 69 C-21 68.67 -21 68.34 -21 68 C-19.75283203 67.99613281 -19.75283203 67.99613281 -18.48046875 67.9921875 C-15.21971869 67.87614657 -12.19163707 67.68890527 -9 67 C-6.82170935 64.14747466 -6.82170935 64.14747466 -6 61 C-4.515 60.505 -4.515 60.505 -3 60 C-2.67 54.39 -2.34 48.78 -2 43 C-1.67 43 -1.34 43 -1 43 C-0.67 28.81 -0.34 14.62 0 0 Z " fill="#38454A" transform="translate(506,720)"/>
<path d="M0 0 C0.33 0 0.66 0 1 0 C1 12.54 1 25.08 1 38 C2.98 37.505 2.98 37.505 5 37 C7.75 37.4375 7.75 37.4375 10 38 C9.67 38.99 9.34 39.98 9 41 C8.01 41 7.02 41 6 41 C5.34 42.32 4.68 43.64 4 45 C3.67 44.67 3.34 44.34 3 44 C2.97273073 46.35424675 2.95303281 48.70816962 2.9375 51.0625 C2.92589844 52.37347656 2.91429687 53.68445313 2.90234375 55.03515625 C2.99547665 58.8163519 3.38551274 62.27920707 4 66 C0.88718309 62.88718309 0.11571115 59.40649021 -0.24050903 55.0765686 C-0.23606781 54.0595285 -0.23162659 53.0424884 -0.22705078 51.99462891 C-0.22689972 50.83387848 -0.22674866 49.67312805 -0.22659302 48.47720337 C-0.21627045 47.23949188 -0.20594788 46.0017804 -0.1953125 44.7265625 C-0.1924826 43.44768158 -0.18965271 42.16880066 -0.18673706 40.85116577 C-0.1774602 37.46779901 -0.15952183 34.08470674 -0.1373291 30.70141602 C-0.11679041 27.24237426 -0.10771826 23.78330404 -0.09765625 20.32421875 C-0.075632 13.54940386 -0.04218118 6.77471776 0 0 Z " fill="#0C1419" transform="translate(228,713)"/>
<path d="M0 0 C9.57 0 19.14 0 29 0 C28.67 1.32 28.34 2.64 28 4 C28 3.34 28 2.68 28 2 C19.09 2 10.18 2 1 2 C0.01 5.3 -0.98 8.6 -2 12 C-2.70860214 13.92436435 -3.43337434 15.84301557 -4.1875 17.75 C-5.64277164 21.65101334 -6.45590652 24.78286471 -6 29 C-6.99 29 -7.98 29 -9 29 C-9.495 31.475 -9.495 31.475 -10 34 C-11.6532624 29.98305474 -10.16863619 26.86698938 -8.69140625 23.046875 C-8.44583481 22.38665344 -8.20026337 21.72643188 -7.94725037 21.04620361 C-7.16247891 18.94349975 -6.36275436 16.84685381 -5.5625 14.75 C-5.02699836 13.32329027 -4.49248138 11.89621054 -3.95898438 10.46875 C-2.65249391 6.97393881 -1.3259304 3.48772734 0 0 Z " fill="#040C14" transform="translate(152,675)"/>
<path d="M0 0 C0.33 0 0.66 0 1 0 C0.54942014 5.97018314 -0.9050967 10.84135879 -3.16015625 16.38671875 C-4.02707231 19.08423895 -4.15712522 21.18695176 -4 24 C-4.66 24 -5.32 24 -6 24 C-6.33 24.99 -6.66 25.98 -7 27 C-7.99 26.67 -8.98 26.34 -10 26 C-10 25.34 -10 24.68 -10 24 C-9.34 24 -8.68 24 -8 24 C-7.34 22.35 -6.68 20.7 -6 19 C-6.99 19.33 -7.98 19.66 -9 20 C-9 19.34 -9 18.68 -9 18 C-9.99 18 -10.98 18 -12 18 C-11.6641593 14.89347355 -11.40950721 13.39585697 -9.125 11.1875 C-7 10 -7 10 -4 10 C-4 9.34 -4 8.68 -4 8 C-4.66 7.67 -5.32 7.34 -6 7 C-5.34 5.68 -4.68 4.36 -4 3 C-3.34 3 -2.68 3 -2 3 C-1.34 2.01 -0.68 1.02 0 0 Z " fill="#172C36" transform="translate(141,763)"/>
<path d="M0 0 C0.33 0 0.66 0 1 0 C1.01458252 1.30670654 1.02916504 2.61341309 1.04418945 3.9597168 C1.10222815 8.81481075 1.17946116 13.66944363 1.26245117 18.52416992 C1.29567422 20.62402861 1.3237143 22.72397603 1.34643555 24.82397461 C1.38002936 27.84527344 1.43234834 30.86576101 1.48828125 33.88671875 C1.49467117 34.82335861 1.5010611 35.75999847 1.50764465 36.72502136 C1.61620696 41.5543734 1.71154886 45.1654943 5 49 C7.8883262 49.9627754 9.74764112 50.1343241 12.75 50.125 C13.56984375 50.12757813 14.3896875 50.13015625 15.234375 50.1328125 C18.50763901 49.97562186 21.75589968 49.4634429 25 49 C25 54.94 25 60.88 25 67 C24.34 67 23.68 67 23 67 C23 61.72 23 56.44 23 51 C21.515 51.495 21.515 51.495 20 52 C17.71238153 52.17143087 15.41857031 52.26643463 13.125 52.3125 C11.91070312 52.34988281 10.69640625 52.38726563 9.4453125 52.42578125 C5.41515381 51.92772309 3.84603011 50.83027718 1 48 C-0.18695418 45.62609164 -0.12075833 44.19755049 -0.11352539 41.55029297 C-0.11344986 40.62948944 -0.11337433 39.70868591 -0.11329651 38.75997925 C-0.10813522 37.76410797 -0.10297394 36.76823669 -0.09765625 35.7421875 C-0.0962413 34.72399933 -0.09482635 33.70581116 -0.09336853 32.6567688 C-0.087759 29.39614965 -0.07520488 26.13559849 -0.0625 22.875 C-0.05748623 20.66796974 -0.05292311 18.46093841 -0.04882812 16.25390625 C-0.03778648 10.83591419 -0.02103905 5.41796195 0 0 Z " fill="#0C1013" transform="translate(349,723)"/>
<path d="M0 0 C0 17.49 0 34.98 0 53 C-0.33 53 -0.66 53 -1 53 C-1.7444115 49.67652284 -2.12290131 46.61317456 -2.11352539 43.2097168 C-2.11344986 42.28913986 -2.11337433 41.36856293 -2.11329651 40.42008972 C-2.10813522 39.4397023 -2.10297394 38.45931488 -2.09765625 37.44921875 C-2.0962413 36.43527542 -2.09482635 35.42133209 -2.09336853 34.37666321 C-2.08778328 31.14691179 -2.07523345 27.91723038 -2.0625 24.6875 C-2.0574831 22.49414163 -2.05292052 20.30078217 -2.04882812 18.10742188 C-2.03781867 12.73825439 -2.02056414 7.36913905 -2 2 C-6.29 2 -10.58 2 -15 2 C-15 1.67 -15 1.34 -15 1 C-12.8750734 0.83240016 -10.75005624 0.66594799 -8.625 0.5 C-7.44164062 0.4071875 -6.25828125 0.314375 -5.0390625 0.21875 C-3.36213157 0.09804546 -1.68126944 0 0 0 Z " fill="#EBECE8" transform="translate(329,723)"/>
<path d="M0 0 C0.66 0.33 1.32 0.66 2 1 C2 1.99 2 2.98 2 4 C1.34 4 0.68 4 0 4 C0 4.66 0 5.32 0 6 C2.97 6.495 2.97 6.495 6 7 C5.67 8.98 5.34 10.96 5 13 C4.01 12.67 3.02 12.34 2 12 C2 12.66 2 13.32 2 14 C2.99 14 3.98 14 5 14 C5.66 13.34 6.32 12.68 7 12 C6.67 13.32 6.34 14.64 6 16 C-2.25 16 -10.5 16 -19 16 C-18.34 14.02 -17.68 12.04 -17 10 C-16.67 11.32 -16.34 12.64 -16 14 C-10.39 14 -4.78 14 1 14 C1 12.68 1 11.36 1 10 C-0.65 10 -2.3 10 -4 10 C-3.51171875 3.9453125 -3.51171875 3.9453125 -3 2 C-2.01 1.34 -1.02 0.68 0 0 Z " fill="#0D1B23" transform="translate(129,775)"/>
<path d="M0 0 C6.93 0 13.86 0 21 0 C21 7.92 21 15.84 21 24 C20.67 24 20.34 24 20 24 C19.02707462 19.14303391 18.88008496 14.54846633 18.9375 9.625 C18.958125 7.10875 18.97875 4.5925 19 2 C13.06 2 7.12 2 1 2 C1 9.26 1 16.52 1 24 C0.67 24 0.34 24 0 24 C0 16.08 0 8.16 0 0 Z " fill="#10161C" transform="translate(329,682)"/>
<path d="M0 0 C0.66 0.33 1.32 0.66 2 1 C1.67 2.32 1.34 3.64 1 5 C-2.10398978 5.08710289 -5.20766548 5.14042309 -8.3125 5.1875 C-9.19357422 5.21263672 -10.07464844 5.23777344 -10.98242188 5.26367188 C-12.25375977 5.27817383 -12.25375977 5.27817383 -13.55078125 5.29296875 C-14.33106689 5.3086792 -15.11135254 5.32438965 -15.9152832 5.34057617 C-18.49903853 4.91847304 -19.36292167 3.98510058 -21 2 C-20.360625 2.165 -19.72125 2.33 -19.0625 2.5 C-11.75280799 3.6934191 -6.67524239 3.13327704 0 0 Z M-2 5 C-1.67 6.32 -1.34 7.64 -1 9 C-1.99 9.33 -2.98 9.66 -4 10 C-4.33 10.66 -4.66 11.32 -5 12 C-5.99 11.67 -6.98 11.34 -8 11 C-8.33 10.01 -8.66 9.02 -9 8 C-8.67 7.34 -8.34 6.68 -8 6 C-5.911361 5.32624548 -4.19636905 5 -2 5 Z M-8 12 C-6.02 12.495 -6.02 12.495 -4 13 C-3.87625 13.639375 -3.7525 14.27875 -3.625 14.9375 C-3.315625 15.9584375 -3.315625 15.9584375 -3 17 C-2.34 17.33 -1.68 17.66 -1 18 C-2.75 19.5625 -2.75 19.5625 -5 21 C-7.25 20.6875 -7.25 20.6875 -9 20 C-8.01 19.34 -7.02 18.68 -6 18 C-6.99 18 -7.98 18 -9 18 C-8.67 16.02 -8.34 14.04 -8 12 Z " fill="#0F1C24" transform="translate(277,770)"/>
<path d="M0 0 C0.66 0.33 1.32 0.66 2 1 C2.495 4.465 2.495 4.465 3 8 C-9.87 8 -22.74 8 -36 8 C-35.67 7.01 -35.34 6.02 -35 5 C-35 5.66 -35 6.32 -35 7 C-34.01 6.34 -33.02 5.68 -32 5 C-29.53615097 4.76034953 -27.17459424 4.62758 -24.70703125 4.5859375 C-23.64798836 4.55688828 -23.64798836 4.55688828 -22.56755066 4.5272522 C-20.31598939 4.46754776 -18.06437672 4.4211086 -15.8125 4.375 C-14.28448311 4.33681171 -12.75648755 4.29775948 -11.22851562 4.2578125 C-7.48585065 4.16185404 -3.7430849 4.07778989 0 4 C0 2.68 0 1.36 0 0 Z " fill="#D8CFC1" transform="translate(731,731)"/>
<path d="M0 0 C0.33 0 0.66 0 1 0 C0.67 7.92 0.34 15.84 0 24 C-0.33 24 -0.66 24 -1 24 C-1 18.72 -1 13.44 -1 8 C-3.475 7.01 -3.475 7.01 -6 6 C-6.33 6.66 -6.66 7.32 -7 8 C-9.5625 8.625 -9.5625 8.625 -12 9 C-12 8.34 -12 7.68 -12 7 C-11.34 6.67 -10.68 6.34 -10 6 C-10 5.01 -10 4.02 -10 3 C-12.31 2.67 -14.62 2.34 -17 2 C-17 1.67 -17 1.34 -17 1 C-15.85660156 1.01160156 -14.71320313 1.02320313 -13.53515625 1.03515625 C-12.04427246 1.04453288 -10.55338691 1.05363321 -9.0625 1.0625 C-8.30775391 1.07087891 -7.55300781 1.07925781 -6.77539062 1.08789062 C-4.85005687 1.09652441 -2.92464419 1.05224333 -1 1 C-0.67 0.67 -0.34 0.34 0 0 Z " fill="#11232E" transform="translate(505,675)"/>
<path d="M0 0 C9.60804468 2.84840263 17.3059956 9.10437974 24.625 15.75 C25.13369629 16.20947021 25.64239258 16.66894043 26.16650391 17.14233398 C28.74486471 19.55357069 30.6888748 21.6990495 32 25 C30.87411986 24.04270084 29.7493285 23.08412105 28.625 22.125 C27.99851562 21.59132813 27.37203125 21.05765625 26.7265625 20.5078125 C25.44163349 19.38567993 24.20628025 18.20628025 23 17 C22.1028125 17.2475 22.1028125 17.2475 21.1875 17.5 C18.25650076 18.16994268 16.66218548 17.25714314 14 16 C14.226875 15.401875 14.45375 14.80375 14.6875 14.1875 C15.26473287 11.96527869 15.26473287 11.96527869 13.8125 10.375 C12.04223279 8.94432951 12.04223279 8.94432951 10 8 C8 7 8 7 6.5 5.4375 C5.07437419 3.82756672 5.07437419 3.82756672 2.875 3.5 C2.25625 3.335 1.6375 3.17 1 3 C0.67 2.01 0.34 1.02 0 0 Z " fill="#ED5008" transform="translate(664,524)"/>
<path d="M0 0 C0.33 0 0.66 0 1 0 C1 1.65 1 3.3 1 5 C1.99 4.67 2.98 4.34 4 4 C6.70889056 8.78039511 6.25833153 13.80621548 5 19 C3.57421875 21.30859375 3.57421875 21.30859375 2 23 C1.34 23 0.68 23 0 23 C0 15.41 0 7.82 0 0 Z " fill="#172C37" transform="translate(330,723)"/>
<path d="M0 0 C0.99 0.33 1.98 0.66 3 1 C2.34 1 1.68 1 1 1 C0.67 3.64 0.34 6.28 0 9 C0.66386719 9.22429687 1.32773437 9.44859375 2.01171875 9.6796875 C5.92501281 11.40869847 9.28823157 13.71703095 12.8125 16.125 C13.50537109 16.59292969 14.19824219 17.06085937 14.91210938 17.54296875 C16.61091105 18.69112437 18.30584864 19.84499367 20 21 C19.34 21.33 18.68 21.66 18 22 C15.45305737 20.6201528 13.05568452 19.18958499 10.625 17.625 C9.9134375 17.17398926 9.201875 16.72297852 8.46875 16.25830078 C2.06673323 12.14947954 -4.01495571 7.69281882 -10 3 C-7 1 -7 1 -4.4375 1.5 C-3.2309375 1.7475 -3.2309375 1.7475 -2 2 C-1.34 1.34 -0.68 0.68 0 0 Z " fill="#ED540D" transform="translate(486,495)"/>
<path d="M0 0 C-0.33 0.66 -0.66 1.32 -1 2 C-2.30324219 1.93039062 -2.30324219 1.93039062 -3.6328125 1.859375 C-10.75975441 1.61496417 -10.75975441 1.61496417 -17.5625 3.4375 C-20.8355883 6.87843898 -22.39230164 10.57410098 -24 15 C-24.66 14.34 -25.32 13.68 -26 13 C-25.67 12.34 -25.34 11.68 -25 11 C-25.99 11 -26.98 11 -28 11 C-27.835 10.401875 -27.67 9.80375 -27.5 9.1875 C-26.8885876 6.88655664 -26.8885876 6.88655664 -27 4 C-26.01 4 -25.02 4 -24 4 C-24.33 3.34 -24.66 2.68 -25 2 C-24.01 1.67 -23.02 1.34 -22 1 C-22 1.99 -22 2.98 -22 4 C-20.948125 3.360625 -19.89625 2.72125 -18.8125 2.0625 C-12.92171895 -1.2783638 -6.53555355 -2.17851785 0 0 Z " fill="#0E1A21" transform="translate(874,721)"/>
<path d="M0 0 C3 3 3 3 3.36076355 5.37284851 C3.35410172 6.30772598 3.34743988 7.24260345 3.34057617 8.20581055 C3.34034958 9.26668381 3.34012299 10.32755707 3.33988953 11.420578 C3.32440567 12.56440445 3.30892181 13.7082309 3.29296875 14.88671875 C3.28872391 16.05886429 3.28447906 17.23100983 3.28010559 18.43867493 C3.26329072 22.18851534 3.22563232 25.93782157 3.1875 29.6875 C3.17245684 32.22720579 3.1587678 34.76691999 3.14648438 37.30664062 C3.11337796 43.53794319 3.06315028 49.76893344 3 56 C2.67 56 2.34 56 2 56 C1.505 38.675 1.505 38.675 1 21 C0.67 21 0.34 21 0 21 C0 14.07 0 7.14 0 0 Z " fill="#F4ECDA" transform="translate(506,699)"/>
<path d="M0 0 C0.66 0 1.32 0 2 0 C1.95875 0.78375 1.9175 1.5675 1.875 2.375 C1.71271266 5.16116119 1.71271266 5.16116119 4 7 C3.01 7.495 3.01 7.495 2 8 C2 18.23 2 28.46 2 39 C3.485 38.505 3.485 38.505 5 38 C5.33 39.32 5.66 40.64 6 42 C4.515 42.495 4.515 42.495 3 43 C1.77479736 46.00847418 1.77479736 46.00847418 1 49 C0.67 49 0.34 49 0 49 C0 32.83 0 16.66 0 0 Z " fill="#1B303B" transform="translate(526,723)"/>
<path d="M0 0 C6.93 0 13.86 0 21 0 C21 3.63 21 7.26 21 11 C20.67 11 20.34 11 20 11 C19.67 8.36 19.34 5.72 19 3 C13.39 3 7.78 3 2 3 C2 7.62 2 12.24 2 17 C1.67 17 1.34 17 1 17 C1.01160156 15.94039062 1.02320313 14.88078125 1.03515625 13.7890625 C1.04453476 12.40104342 1.05363489 11.01302245 1.0625 9.625 C1.07087891 8.92632813 1.07925781 8.22765625 1.08789062 7.5078125 C1.1835442 3.62704624 1.1835442 3.62704624 0 0 Z " fill="#273339" transform="translate(525,705)"/>
<path d="M0 0 C0.84111328 0.24363281 0.84111328 0.24363281 1.69921875 0.4921875 C4.14320096 1.03160632 6.31179264 1.13287624 8.8125 1.125 C9.62332031 1.12757813 10.43414063 1.13015625 11.26953125 1.1328125 C14.53107101 0.97416822 17.7674231 0.4617967 21 0 C21 6.27 21 12.54 21 19 C17.7 19 14.4 19 11 19 C11 18.67 11 18.34 11 18 C14.96 17.505 14.96 17.505 19 17 C19 12.05 19 7.1 19 2 C18.01 2.33 17.02 2.66 16 3 C13.8365832 3.14497123 11.66807069 3.22070175 9.5 3.25 C8.3553125 3.27578125 7.210625 3.3015625 6.03125 3.328125 C3 3 3 3 1.09375 1.484375 C0.7328125 0.99453125 0.371875 0.5046875 0 0 Z " fill="#050B11" transform="translate(648,772)"/>
<path d="M0 0 C1.85292227 5.55876681 -0.21326195 10.63978584 -2 16 C-2.04374542 17.68693289 -2.03975332 19.37546831 -2 21.0625 C-1.88920056 25.77840112 -1.88920056 25.77840112 -3 28 C-3.23172827 30.54615009 -3.41894529 33.07396225 -3.5625 35.625 C-3.60568359 36.33140625 -3.64886719 37.0378125 -3.69335938 37.765625 C-3.79944751 39.51018537 -3.90022889 41.25506697 -4 43 C-4.33 43 -4.66 43 -5 43 C-5.50446849 11.00893697 -5.50446849 11.00893697 0 0 Z " fill="#EC4C0B" transform="translate(316,568)"/>
<path d="M0 0 C0.32786812 6.77594113 -0.2789192 12.70906089 -3 19 C-3.66 19.33 -4.32 19.66 -5 20 C-4.01 16.04 -3.02 12.08 -2 8 C-3.32 9.32 -4.64 10.64 -6 12 C-6.66 12.66 -7.32 13.32 -8 14 C-7.814375 13.278125 -7.62875 12.55625 -7.4375 11.8125 C-6.98004693 8.87173027 -7.26483643 6.85896942 -8 4 C-2.95652174 0 -2.95652174 0 0 0 Z " fill="#EE5707" transform="translate(616,331)"/>
<path d="M0 0 C1.75 1.4375 1.75 1.4375 3 3 C2.67 3.66 2.34 4.32 2 5 C2.99 5.33 3.98 5.66 5 6 C5.33 5.01 5.66 4.02 6 3 C6.33 4.32 6.66 5.64 7 7 C1.06 7 -4.88 7 -11 7 C-11 6.01 -11 5.02 -11 4 C-9.02 3.01 -7.04 2.02 -5 1 C-4.67 1.99 -4.34 2.98 -4 4 C-4 3.01 -4 2.02 -4 1 C-2.1875 0.3125 -2.1875 0.3125 0 0 Z " fill="#192E38" transform="translate(710,784)"/>
<path d="M0 0 C6.53849968 1.96829667 12.50104568 4.55949024 18.5625 7.6875 C19.38041016 8.10322266 20.19832031 8.51894531 21.04101562 8.94726562 C23.03024551 9.95932995 25.0164154 10.97692847 27 12 C24 13 24 13 21.73046875 12.0390625 C20.89128906 11.57242188 20.05210937 11.10578125 19.1875 10.625 C15.42463204 8.63613421 12.30410387 7.33979767 8 7 C8 6.34 8 5.68 8 5 C5.525 4.01 5.525 4.01 3 3 C2.34 4.65 1.68 6.3 1 8 C0.01 7.67 -0.98 7.34 -2 7 C-1.34 7 -0.68 7 0 7 C-0.66 5.35 -1.32 3.7 -2 2 C-1.34 1.34 -0.68 0.68 0 0 Z " fill="#EC4D05" transform="translate(616,224)"/>
<path d="M0 0 C0.66 0 1.32 0 2 0 C0.4707663 5.34073286 -1.1887261 10.56456878 -3.1875 15.75 C-4.64277164 19.65101334 -5.45590652 22.78286471 -5 27 C-5.99 27 -6.98 27 -8 27 C-8.33 28.65 -8.66 30.3 -9 32 C-10.57418498 28.02400974 -9.34405272 25.37890863 -7.91015625 21.484375 C-7.68678085 20.86854553 -7.46340546 20.25271606 -7.23326111 19.6182251 C-6.51972759 17.65829803 -5.79138364 15.70426368 -5.0625 13.75 C-4.57518403 12.41963227 -4.0888444 11.08890646 -3.60351562 9.7578125 C-2.41363144 6.50098203 -1.21040601 3.24926768 0 0 Z " fill="#0E1419" transform="translate(151,677)"/>
<path d="M0 0 C0.66 0.33 1.32 0.66 2 1 C1.01 2.485 1.01 2.485 0 4 C0.30791692 5.671549 0.64386903 7.33805547 1 9 C0.5625 11.8125 0.5625 11.8125 0 14 C-0.66 14 -1.32 14 -2 14 C-2 14.66 -2 15.32 -2 16 C-2.66 16 -3.32 16 -4 16 C-4.33 16.66 -4.66 17.32 -5 18 C-5.44571269 11.04192963 -5.68605882 6.39606774 -1 1 C-0.67 0.67 -0.34 0.34 0 0 Z " fill="#EE5608" transform="translate(412,363)"/>
<path d="M0 0 C0.33 0 0.66 0 1 0 C1 1.65 1 3.3 1 5 C7.93 5 14.86 5 22 5 C22.33 4.01 22.66 3.02 23 2 C23 3.65 23 5.3 23 7 C15.08 7 7.16 7 -1 7 C-0.67 4.69 -0.34 2.38 0 0 Z " fill="#0F161E" transform="translate(484,784)"/>
<path d="M0 0 C0 7.5 0 7.5 -2 11 C-5 10 -5 10 -6.1875 7.9375 C-6.5896875 6.9784375 -6.5896875 6.9784375 -7 6 C-6.34 6 -5.68 6 -5 6 C-5 5.34 -5 4.68 -5 4 C-8.63 4 -12.26 4 -16 4 C-16 3.67 -16 3.34 -16 3 C-14.64455078 2.80083984 -14.64455078 2.80083984 -13.26171875 2.59765625 C-12.08222656 2.42105469 -10.90273438 2.24445312 -9.6875 2.0625 C-7.92986328 1.80146484 -7.92986328 1.80146484 -6.13671875 1.53515625 C-2.98358597 1.07906969 -2.98358597 1.07906969 0 0 Z " fill="#111E26" transform="translate(434,771)"/>
<path d="M0 0 C2.92101014 1.19004117 4.29946228 2.32192195 6.5 4.6875 C7.325 5.450625 8.15 6.21375 9 7 C11.27523089 6.95502158 11.27523089 6.95502158 13 6 C12.34 7.32 11.68 8.64 11 10 C8.07909997 8.69063102 6.24380538 7.24380538 4 5 C3.01 4.67 2.02 4.34 1 4 C1 5.65 1 7.3 1 9 C-0.98 8.34 -2.96 7.68 -5 7 C-4.67 5.35 -4.34 3.7 -4 2 C-3.01 2 -2.02 2 -1 2 C-0.67 1.34 -0.34 0.68 0 0 Z " fill="#ED5607" transform="translate(547,548)"/>
<path d="M0 0 C0.33 0 0.66 0 1 0 C1.99 3.96 2.98 7.92 4 12 C5.32 11.67 6.64 11.34 8 11 C7.67 13.31 7.34 15.62 7 18 C5.1015625 17.8125 5.1015625 17.8125 3 17 C2.0234375 14.75 2.0234375 14.75 1.375 12 C0.96925914 10.3197555 0.52079122 8.64821835 0 7 C-0.66 6.67 -1.32 6.34 -2 6 C-2 4.68 -2 3.36 -2 2 C-1.34 2 -0.68 2 0 2 C0 1.34 0 0.68 0 0 Z M9 8 C9 11 9 11 9 11 Z " fill="#1D303A" transform="translate(380,751)"/>
<path d="M0 0 C6.27 0 12.54 0 19 0 C19.66 2.31 20.32 4.62 21 7 C21.99 6.01 22.98 5.02 24 4 C24.66 4.33 25.32 4.66 26 5 C24.85760183 6.33627775 23.71098945 7.66895388 22.5625 9 C21.92441406 9.7425 21.28632812 10.485 20.62890625 11.25 C20.09136719 11.8275 19.55382812 12.405 19 13 C18.67 13 18.34 13 18 13 C18 9.04 18 5.08 18 1 C12.06 1 6.12 1 0 1 C0 0.67 0 0.34 0 0 Z " fill="#FDFDF8" transform="translate(528,704)"/>
<path d="M0 0 C-0.350625 0.53625 -0.70125 1.0725 -1.0625 1.625 C-2.28924249 4.73274763 -1.72856431 6.79431703 -1 10 C-6.75 8.25 -6.75 8.25 -9 6 C-8.8125 4 -8.8125 4 -8 2 C-4.77208445 -0.1519437 -3.71599191 -0.20086443 0 0 Z " fill="#ED5209" transform="translate(341,257)"/>
<path d="M0 0 C0.66 0.33 1.32 0.66 2 1 C1.01 1.66 0.02 2.32 -1 3 C-1 3.99 -1 4.98 -1 6 C-1.66 6 -2.32 6 -3 6 C-3.33 6.99 -3.66 7.98 -4 9 C-4.70125 8.62875 -5.4025 8.2575 -6.125 7.875 C-9.76443651 6.76734541 -11.55700411 7.55874591 -15 9 C-12.41676876 6.0117325 -9.44464763 4.50570453 -5.9375 2.75 C-4.87402344 2.20859375 -3.81054688 1.6671875 -2.71484375 1.109375 C-1.81894531 0.74328125 -0.92304688 0.3771875 0 0 Z " fill="#ED5005" transform="translate(368,519)"/>
<path d="M0 0 C2 2 2 2 2.375 4.5 C2.684375 5.7375 2.684375 5.7375 3 7 C3.66 7.309375 4.32 7.61875 5 7.9375 C5.66 8.288125 6.32 8.63875 7 9 C7.36270588 10.99488234 7.69169075 12.99598989 8 15 C9.95456777 18.30859472 9.95456777 18.30859472 12 21 C11.67 21.66 11.34 22.32 11 23 C0 7.69072165 0 7.69072165 0 0 Z " fill="#ED4907" transform="translate(438,429)"/>
<path d="M0 0 C0.33 0 0.66 0 1 0 C1.33 6.6 1.66 13.2 2 20 C2.99 20 3.98 20 5 20 C5 20.66 5 21.32 5 22 C4.34 22 3.68 22 3 22 C3 23.65 3 25.3 3 27 C-0.7242656 21.4136016 -0.12977336 15.11429177 -0.0625 8.625 C-0.05798828 7.79355469 -0.05347656 6.96210938 -0.04882812 6.10546875 C-0.03713164 4.07028103 -0.01919935 2.03513077 0 0 Z " fill="#EE4908" transform="translate(407,315)"/>
<path d="M0 0 C-1.9137069 1.46236093 -3.83075233 2.91994246 -5.75 4.375 C-6.55824219 4.99375 -6.55824219 4.99375 -7.3828125 5.625 C-10.14944813 7.71684645 -12.8209088 9.59564418 -16 11 C-16.33 9.02 -16.66 7.04 -17 5 C-16.278125 5.226875 -15.55625 5.45375 -14.8125 5.6875 C-11.24415308 6.08398299 -9.86128901 5.04377787 -7 3 C-7.33 2.34 -7.66 1.68 -8 1 C-2.25 -1.125 -2.25 -1.125 0 0 Z " fill="#EE520B" transform="translate(547,499)"/>
<path d="M0 0 C2.1492788 4.2985576 2.08225293 6.31158282 2 11 C2.28520405 12.67557379 2.59955696 14.34817245 3 16 C5.31 16 7.62 16 10 16 C10 16.33 10 16.66 10 17 C6.7 17 3.4 17 0 17 C0 11.39 0 5.78 0 0 Z " fill="#1A303B" transform="translate(526,773)"/>
<path d="M0 0 C0.33 0 0.66 0 1 0 C1 10.23 1 20.46 1 31 C0.67 31 0.34 31 0 31 C-0.73030908 24.78675502 -1.23180249 19.15901243 0 13 C-0.66 13 -1.32 13 -2 13 C-1.34 8.71 -0.68 4.42 0 0 Z " fill="#1B313B" transform="translate(643,724)"/>
<path d="M0 0 C0 4.95 0 9.9 0 15 C-0.33 15 -0.66 15 -1 15 C-1 12.69 -1 10.38 -1 8 C-1.99 7.67 -2.98 7.34 -4 7 C-4 6.01 -4 5.02 -4 4 C-4.66 4 -5.32 4 -6 4 C-6 3.34 -6 2.68 -6 2 C-3 0 -3 0 0 0 Z " fill="#1B2F3B" transform="translate(372,774)"/>
<path d="M0 0 C3.85025879 0.60355408 6.86101159 1.76772603 10.3125 3.5625 C11.19550781 4.01753906 12.07851563 4.47257813 12.98828125 4.94140625 C13.65214844 5.29074219 14.31601562 5.64007813 15 6 C12 7 12 7 9.5625 5.9375 C7.0383409 4.69747657 7.0383409 4.69747657 4.6875 5.875 C3.8521875 6.431875 3.8521875 6.431875 3 7 C2.814375 5.824375 2.814375 5.824375 2.625 4.625 C2.20882007 1.85942178 2.20882007 1.85942178 0 0 Z " fill="#ED4D04" transform="translate(649,240)"/>
<path d="M0 0 C0.66 0.33 1.32 0.66 2 1 C1.175 1.556875 0.35 2.11375 -0.5 2.6875 C-3.2745414 4.74927133 -3.2745414 4.74927133 -3.3125 7.75 C-3.209375 8.4925 -3.10625 9.235 -3 10 C-3.99 9.67 -4.98 9.34 -6 9 C-5.67 8.01 -5.34 7.02 -5 6 C-6.32 5.67 -7.64 5.34 -9 5 C-7.54735962 4.1361871 -6.0876837 3.28419546 -4.625 2.4375 C-3.40683594 1.72400391 -3.40683594 1.72400391 -2.1640625 0.99609375 C-1.44992187 0.66738281 -0.73578125 0.33867187 0 0 Z M-6 10 C-6 10.99 -6 11.98 -6 13 C-6.66 12.67 -7.32 12.34 -8 12 C-7.34 11.34 -6.68 10.68 -6 10 Z " fill="#ED5207" transform="translate(400,227)"/>
<path d="M0 0 C-0.99 0.495 -0.99 0.495 -2 1 C-1.67 1.66 -1.34 2.32 -1 3 C-4 5 -4 5 -7 5 C-7 4.34 -7 3.68 -7 3 C-8.65 3.33 -10.3 3.66 -12 4 C-8.15336308 0.86570325 -4.95471579 -1.65157193 0 0 Z " fill="#ED5207" transform="translate(383,515)"/>
<path d="M0 0 C0.33 0.66 0.66 1.32 1 2 C0.67 2.99 0.34 3.98 0 5 C0.99 5.33 1.98 5.66 3 6 C2.34 7.32 1.68 8.64 1 10 C0.34 9.67 -0.32 9.34 -1 9 C-1.99 9.495 -1.99 9.495 -3 10 C-2.49287967 6.28111761 -1.88391785 3.26545761 0 0 Z M3 4 C3.66 4.66 4.32 5.32 5 6 C4.34 6 3.68 6 3 6 C3 5.34 3 4.68 3 4 Z " fill="#0F1B22" transform="translate(139,712)"/>
<path d="M0 0 C1.65 0 3.3 0 5 0 C5.33 1.98 5.66 3.96 6 6 C2.86650268 7.04449911 2.01031744 6.93423645 -1 6 C-1 5.34 -1 4.68 -1 4 C-0.01 4 0.98 4 2 4 C2 3.34 2 2.68 2 2 C1.34 1.34 0.68 0.68 0 0 Z " fill="#11222B" transform="translate(431,704)"/>
<path d="M0 0 C0.33 0.66 0.66 1.32 1 2 C0.34 2 -0.32 2 -1 2 C-0.34 3.65 0.32 5.3 1 7 C0.34 7.66 -0.32 8.32 -1 9 C-1.45375 8.360625 -1.9075 7.72125 -2.375 7.0625 C-3.83921726 4.90297594 -3.83921726 4.90297594 -6 4 C-4.02 2.68 -2.04 1.36 0 0 Z M1 4 C1.66 4 2.32 4 3 4 C3 4.66 3 5.32 3 6 C2.34 6 1.68 6 1 6 C1 5.34 1 4.68 1 4 Z " fill="#EC5608" transform="translate(351,528)"/>
<path d="M0 0 C3.95820859 0.56545837 6.6659053 1.80902348 10 4 C9.34 5.32 8.68 6.64 8 8 C7.67 7.01 7.34 6.02 7 5 C6.21625 4.9175 5.4325 4.835 4.625 4.75 C2 4 2 4 0.6875 1.9375 C0.460625 1.298125 0.23375 0.65875 0 0 Z " fill="#161D21" transform="translate(743,770)"/>
<path d="M0 0 C0.66 0.99 1.32 1.98 2 3 C1.00200236 6.99199058 -0.55799862 8.82006579 -4 11 C-4 9.02 -4 7.04 -4 5 C-3.34 5 -2.68 5 -2 5 C-1.7834375 4.0409375 -1.7834375 4.0409375 -1.5625 3.0625 C-1 1 -1 1 0 0 Z " fill="#1B2E37" transform="translate(405,725)"/>
<path d="M0 0 C1.1446875 0.2475 1.1446875 0.2475 2.3125 0.5 C5.03596236 1.09145396 5.03596236 1.09145396 8 1 C8.12375 1.639375 8.2475 2.27875 8.375 2.9375 C8.58125 3.618125 8.7875 4.29875 9 5 C9.66 5.33 10.32 5.66 11 6 C6.48986609 5.46939601 3.61621781 3.69113883 0 1 C0 0.67 0 0.34 0 0 Z " fill="#192E39" transform="translate(238,784)"/>
<path d="M0 0 C0.66 0.33 1.32 0.66 2 1 C1.21625 1.5775 0.4325 2.155 -0.375 2.75 C-2.80047244 4.82897637 -3.85694417 6.09040333 -5 9 C-5.103125 8.360625 -5.20625 7.72125 -5.3125 7.0625 C-5.539375 6.381875 -5.76625 5.70125 -6 5 C-6.99 4.67 -7.98 4.34 -9 4 C-7.54618103 3.30300448 -6.08677047 2.61766134 -4.625 1.9375 C-3.40683594 1.36322266 -3.40683594 1.36322266 -2.1640625 0.77734375 C-1.44992187 0.52082031 -0.73578125 0.26429688 0 0 Z " fill="#EE550E" transform="translate(428,214)"/>
<path d="M0 0 C2.475 0.99 2.475 0.99 5 2 C5 2.66 5 3.32 5 4 C1.535 5.485 1.535 5.485 -2 7 C-2 4 -2 4 -1 2 C-0.34 2.33 0.32 2.66 1 3 C0.67 2.01 0.34 1.02 0 0 Z " fill="#172C37" transform="translate(444,709)"/>
<path d="M0 0 C0.33 0 0.66 0 1 0 C1.33 2.64 1.66 5.28 2 8 C1.01 8 0.02 8 -1 8 C-1.33 9.65 -1.66 11.3 -2 13 C-3.18771723 9.57056481 -2.80226223 7.62215325 -1.5625 4.25 C-1.27503906 3.45078125 -0.98757812 2.6515625 -0.69140625 1.828125 C-0.46324219 1.22484375 -0.23507813 0.6215625 0 0 Z " fill="#121B1F" transform="translate(144,696)"/>
<path d="M0 0 C0.33 0 0.66 0 1 0 C1 1.65 1 3.3 1 5 C0.01 5 -0.98 5 -2 5 C-2.28875 5.94875 -2.5775 6.8975 -2.875 7.875 C-4 11 -4 11 -6 13 C-5.52467862 7.92990529 -2.95637706 4.02506742 0 0 Z " fill="#EC4707" transform="translate(323,554)"/>
<path d="M0 0 C0.66 0.33 1.32 0.66 2 1 C1.8125 3.375 1.8125 3.375 1 6 C-1.5625 7.3125 -1.5625 7.3125 -4 8 C-4.33 7.01 -4.66 6.02 -5 5 C-3.35 3.35 -1.7 1.7 0 0 Z " fill="#EB5305" transform="translate(338,537)"/>
<path d="M0 0 C2.3125 -0.25 2.3125 -0.25 5 0 C6.8125 2 6.8125 2 8 4 C7.34 4.66 6.68 5.32 6 6 C5.34 5.01 4.68 4.02 4 3 C1.41619823 2.74969023 1.41619823 2.74969023 -1 3 C-0.67 2.01 -0.34 1.02 0 0 Z " fill="#243238" transform="translate(736,711)"/>
<path d="M0 0 C4 6 4 6 8 12 C7.01 12 6.02 12 5 12 C3.61328125 10.390625 3.61328125 10.390625 2.3125 8.25 C1.87550781 7.55390625 1.43851563 6.8578125 0.98828125 6.140625 C0 4 0 4 0 0 Z " fill="#E9E9E4" transform="translate(229,774)"/>
<path d="M0 0 C0.33 0.66 0.66 1.32 1 2 C1.66 1.67 2.32 1.34 3 1 C2.34 2.32 1.68 3.64 1 5 C-2 5 -2 5 -3.6875 3.5 C-4.120625 3.005 -4.55375 2.51 -5 2 C-2 0 -2 0 0 0 Z " fill="#0E1A21" transform="translate(279,780)"/>
<path d="M0 0 C0.33 0 0.66 0 1 0 C1.08333357 4.8333472 0.95261487 9.23692563 0 14 C-0.33 14 -0.66 14 -1 14 C-1.22331199 12.41870971 -1.42804644 10.83478911 -1.625 9.25 C-1.74101563 8.36828125 -1.85703125 7.4865625 -1.9765625 6.578125 C-2.00207817 3.77140122 -1.44843844 2.36615134 0 0 Z " fill="#FEFAF1" transform="translate(643,376)"/>
<path d="M0 0 C0.99 0.495 0.99 0.495 2 1 C3.231394 4.69418201 2.64432764 7.2056261 2 11 C1.67 11 1.34 11 1 11 C0.67 7.37 0.34 3.74 0 0 Z M3 0 C3.99 0.495 3.99 0.495 5 1 C5 1.66 5 2.32 5 3 C4.34 3 3.68 3 3 3 C3 2.01 3 1.02 3 0 Z " fill="#1D313A" transform="translate(447,739)"/>
<path d="M0 0 C0.598125 0.20625 1.19625 0.4125 1.8125 0.625 C0 2.625 0 2.625 -2.1875 4.625 C-3.1775 4.625 -4.1675 4.625 -5.1875 4.625 C-5.1875 3.635 -5.1875 2.645 -5.1875 1.625 C-2.1875 -0.375 -2.1875 -0.375 0 0 Z " fill="#F8F5EC" transform="translate(860.1875,723.375)"/>
<path d="M0 0 C2.76223278 2.76223278 2.57856291 5.20706617 3 9 C-0.875 7.125 -0.875 7.125 -2 6 C-2 5.34 -2 4.68 -2 4 C-1.34 3.67 -0.68 3.34 0 3 C0 2.01 0 1.02 0 0 Z " fill="#1B303B" transform="translate(598,719)"/>
<path d="M0 0 C1.32 0 2.64 0 4 0 C2.70700306 2.88437779 1.34058637 4.87219421 -1 7 C-1.33 5.35 -1.66 3.7 -2 2 C-1.34 2 -0.68 2 0 2 C0 1.34 0 0.68 0 0 Z " fill="#172D37" transform="translate(698,721)"/>
<path d="M0 0 C2.32590854 3.63423209 2.16265833 6.77088331 2 11 C1.34 11 0.68 11 0 11 C-1.37432457 7.18243176 -0.67975039 3.92744671 0 0 Z " fill="#EE4F0C" transform="translate(672,378)"/>
<path d="M0 0 C0.99 0.33 1.98 0.66 3 1 C3.26218749 4.14624993 3.24754367 5.61837017 1.5 8.3125 C0.7575 9.1478125 0.7575 9.1478125 0 10 C-0.74926071 6.33694766 -1.2380014 3.57644848 0 0 Z " fill="#20313A" transform="translate(466,739)"/>
<path d="M0 0 C0.66 0.33 1.32 0.66 2 1 C1.34 4.96 0.68 8.92 0 13 C-0.33 13 -0.66 13 -1 13 C-1.02686553 11.02090602 -1.04633375 9.04171029 -1.0625 7.0625 C-1.07410156 5.96035156 -1.08570313 4.85820313 -1.09765625 3.72265625 C-1 1 -1 1 0 0 Z " fill="#1B2F39" transform="translate(231,759)"/>
<path d="M0 0 C0.66 0.33 1.32 0.66 2 1 C-0.75 6.875 -0.75 6.875 -3 8 C-3.36923077 3.44615385 -3.36923077 3.44615385 -1.5 1.1875 C-1.005 0.795625 -0.51 0.40375 0 0 Z " fill="#13222A" transform="translate(389,718)"/>
<path d="M0 0 C2.125 0.375 2.125 0.375 4 1 C3.67 2.32 3.34 3.64 3 5 C2.01 5 1.02 5 0 5 C0 4.34 0 3.68 0 3 C-0.66 2.67 -1.32 2.34 -2 2 C-1.34 1.34 -0.68 0.68 0 0 Z " fill="#22343C" transform="translate(430,703)"/>
<path d="M0 0 C2.5654594 2.5654594 2.54046087 4.47686668 3 8 C2.67 7.34 2.34 6.68 2 6 C0.68 6 -0.64 6 -2 6 C-2 5.34 -2 4.68 -2 4 C-1.34 4 -0.68 4 0 4 C0 2.68 0 1.36 0 0 Z " fill="#192F3A" transform="translate(210,760)"/>
<path d="M0 0 C0.66 0.33 1.32 0.66 2 1 C2.40729228 3.32156597 2.74438677 5.6568787 3 8 C0.03 7.505 0.03 7.505 -3 7 C-1.68 6.67 -0.36 6.34 1 6 C0.67 4.02 0.34 2.04 0 0 Z " fill="#E9E9E6" transform="translate(731,731)"/>
<path d="M0 0 C0.99 0.33 1.98 0.66 3 1 C4.1875 4.5625 4.1875 4.5625 5 8 C4.34 8 3.68 8 3 8 C2.731875 7.21625 2.46375 6.4325 2.1875 5.625 C1.15185568 2.71885077 1.15185568 2.71885077 -2 1 C-1.34 0.67 -0.68 0.34 0 0 Z " fill="#FEF7EE" transform="translate(435,490)"/>
<path d="M0 0 C3.82097239 0.53069061 6.06171403 1.49701566 9 4 C7.35 4.33 5.7 4.66 4 5 C4 4.34 4 3.68 4 3 C2.0399719 1.36323743 2.0399719 1.36323743 0 0 Z " fill="#EE5414" transform="translate(620,226)"/>
</svg>
